<svg width="17" height="14" viewBox="0 0 17 14" fill="none" xmlns="http://www.w3.org/2000/svg">
<path id="Arrow 2" d="M0.452751 11.831C-0.00949495 12.1332 -0.139207 12.753 0.16303 13.2152C0.465268 13.6775 1.085 13.8072 1.54725 13.5049L0.452751 11.831ZM16.2575 3.53676C16.3706 2.99619 16.0241 2.46625 15.4836 2.3531L6.67445 0.509336C6.13388 0.396193 5.60394 0.742692 5.49079 1.28326C5.37765 1.82383 5.72415 2.35377 6.26472 2.46692L14.095 4.10582L12.4561 11.9361C12.343 12.4767 12.6895 13.0067 13.2301 13.1198C13.7706 13.2329 14.3006 12.8864 14.4137 12.3459L16.2575 3.53676ZM1.54725 13.5049L15.826 4.16886L14.7315 2.49493L0.452751 11.831L1.54725 13.5049Z" fill="#A0A3BD"/>
</svg>
