<svg width="24" height="24" viewBox="0 0 24 24" fill="none" xmlns="http://www.w3.org/2000/svg">
<g id="arcticons:billthefarmercrossword">
<path id="Vector" d="M20.25 2.75H3.75C3.19772 2.75 2.75 3.19772 2.75 3.75V20.25C2.75 20.8023 3.19772 21.25 3.75 21.25H20.25C20.8023 21.25 21.25 20.8023 21.25 20.25V3.75C21.25 3.19772 20.8023 2.75 20.25 2.75Z" stroke="#FFC300" stroke-linecap="round" stroke-linejoin="round"/>
<path id="Vector_2" d="M8.9165 2.75V21.25M15.0835 2.75V21.25M2.75 8.9165H21.25M2.75 15.0835H21.25M4.8335 7.8335H6.8335M4.8335 4.378L5.8335 3.8335V7.8335M16.8415 5.1585C16.8415 4.9845 16.8758 4.8122 16.9424 4.65144C17.0089 4.49069 17.1065 4.34462 17.2296 4.22158C17.3526 4.09855 17.4987 4.00095 17.6594 3.93436C17.8202 3.86777 17.9925 3.8335 18.1665 3.8335C18.3405 3.8335 18.5128 3.86777 18.6736 3.93436C18.8343 4.00095 18.9804 4.09855 19.1034 4.22158C19.2265 4.34462 19.3241 4.49069 19.3906 4.65144C19.4572 4.8122 19.4915 4.9845 19.4915 5.1585C19.4967 5.33324 19.4649 5.50709 19.398 5.66861C19.3311 5.83012 19.2307 5.97562 19.1035 6.0955C18.5675 6.5655 16.8415 7.8335 16.8415 7.8335H19.4915M6.1585 18.167C6.42372 18.167 6.67807 18.0616 6.86561 17.8741C7.05314 17.6866 7.1585 17.4322 7.1585 17.167C7.1585 16.9018 7.05314 16.6474 6.86561 16.4599C6.67807 16.2724 6.42372 16.167 6.1585 16.167" stroke="#FFC300" stroke-linecap="round" stroke-linejoin="round"/>
<path id="Vector_3" d="M4.50831 19.8283C4.86264 20.0992 5.30911 20.2204 5.75181 20.1658H6.15781C6.42303 20.1658 6.67738 20.0604 6.86492 19.8729C7.05246 19.6853 7.15781 19.431 7.15781 19.1658C7.15781 18.9005 7.05246 18.6462 6.86492 18.4587C6.67738 18.2711 6.42303 18.1658 6.15781 18.1658L5.13931 18.1663M4.50781 16.5003C4.86297 16.23 5.31002 16.1099 5.75281 16.1658L6.15831 16.1668" stroke="#FFC300" stroke-linecap="round" stroke-linejoin="round"/>
</g>
</svg>
