<svg width="30" height="30" viewBox="0 0 30 30" fill="none" xmlns="http://www.w3.org/2000/svg">
<g id="clarity:image-gallery-line" clip-path="url(#clip0_2065_17924)">
<path id="Vector" d="M26.768 8.33398H3.23464C2.81913 8.33398 2.42064 8.49904 2.12683 8.79285C1.83303 9.08666 1.66797 9.48515 1.66797 9.90065V25.1007C1.66797 25.5162 1.83303 25.9146 2.12683 26.2085C2.42064 26.5023 2.81913 26.6673 3.23464 26.6673H26.768C27.1835 26.6673 27.582 26.5023 27.8758 26.2085C28.1696 25.9146 28.3346 25.5162 28.3346 25.1007V9.90065C28.3346 9.48515 28.1696 9.08666 27.8758 8.79285C27.582 8.49904 27.1835 8.33398 26.768 8.33398ZM26.668 25.0007H3.33464V10.0007H26.668V25.0007Z" fill="#364E79"/>
<path id="Vector_2" d="M7.13281 16.209C7.62727 16.209 8.11062 16.0624 8.52174 15.7877C8.93286 15.513 9.25329 15.1225 9.44251 14.6657C9.63173 14.2089 9.68124 13.7062 9.58478 13.2213C9.48831 12.7363 9.25021 12.2909 8.90058 11.9412C8.55095 11.5916 8.10549 11.3535 7.62054 11.257C7.13559 11.1606 6.63292 11.2101 6.1761 11.3993C5.71929 11.5885 5.32884 11.9089 5.05414 12.3201C4.77944 12.7312 4.63281 13.2145 4.63281 13.709C4.63281 14.372 4.8962 15.0079 5.36505 15.4768C5.83389 15.9456 6.46977 16.209 7.13281 16.209ZM7.13281 12.3757C7.39784 12.369 7.65883 12.4416 7.88243 12.584C8.10604 12.7264 8.28211 12.9322 8.38816 13.1752C8.49421 13.4182 8.52541 13.6873 8.47779 13.9481C8.43017 14.2089 8.30589 14.4495 8.12081 14.6394C7.93574 14.8292 7.69828 14.9595 7.43877 15.0137C7.17926 15.0679 6.90948 15.0436 6.6639 14.9437C6.41832 14.8438 6.20808 14.673 6.06004 14.4531C5.91201 14.2332 5.8329 13.9741 5.83281 13.709C5.8327 13.3611 5.96859 13.0269 6.21148 12.7778C6.45436 12.5287 6.785 12.3844 7.13281 12.3757Z" fill="#364E79"/>
<path id="Vector_3" d="M6.58359 23.3337L11.5836 18.3337L14.2336 20.9837L11.8836 23.3337H13.5503L19.7669 17.117L25.0003 22.3087V20.642L20.1669 15.8337C20.0561 15.7238 19.9063 15.6621 19.7503 15.6621C19.5942 15.6621 19.4444 15.7238 19.3336 15.8337L15.0336 20.1337L11.9753 17.0837C11.8644 16.9738 11.7147 16.9121 11.5586 16.9121C11.4025 16.9121 11.2527 16.9738 11.1419 17.0837L4.93359 23.3337H6.58359Z" fill="#364E79"/>
<path id="Vector_4" d="M25.1172 2.49935C25.1172 2.27834 25.0294 2.06637 24.8731 1.91009C24.7168 1.75381 24.5049 1.66602 24.2839 1.66602H5.95052C5.72951 1.66602 5.51755 1.75381 5.36127 1.91009C5.20499 2.06637 5.11719 2.27834 5.11719 2.49935V3.33268H25.1172V2.49935Z" fill="#364E79"/>
<path id="Vector_5" d="M26.7669 5.83333C26.7669 5.61232 26.6791 5.40036 26.5228 5.24408C26.3666 5.0878 26.1546 5 25.9336 5H4.26693C4.04591 5 3.83395 5.0878 3.67767 5.24408C3.52139 5.40036 3.43359 5.61232 3.43359 5.83333V6.66667H26.7669V5.83333Z" fill="#364E79"/>
</g>
<defs>
<clipPath id="clip0_2065_17924">
<rect width="30" height="30" fill="white"/>
</clipPath>
</defs>
</svg>
