<svg width="22" height="22" viewBox="0 0 22 22" fill="none" xmlns="http://www.w3.org/2000/svg">
<g id="clarity:image-gallery-line" clip-path="url(#clip0_425_5324)">
<path id="Vector" d="M19.6293 6.11133H2.37155C2.06684 6.11133 1.77462 6.23237 1.55916 6.44783C1.3437 6.66329 1.22266 6.95551 1.22266 7.26022V18.4069C1.22266 18.7116 1.3437 19.0038 1.55916 19.2193C1.77462 19.4347 2.06684 19.5558 2.37155 19.5558H19.6293C19.934 19.5558 20.2262 19.4347 20.4417 19.2193C20.6572 19.0038 20.7782 18.7116 20.7782 18.4069V7.26022C20.7782 6.95551 20.6572 6.66329 20.4417 6.44783C20.2262 6.23237 19.934 6.11133 19.6293 6.11133ZM19.556 18.3336H2.44488V7.33355H19.556V18.3336Z" fill="#8C90B6"/>
<path id="Vector_2" d="M5.23177 11.8854C5.59437 11.8854 5.94883 11.7779 6.25032 11.5764C6.55181 11.375 6.78679 11.0887 6.92555 10.7537C7.06431 10.4187 7.10062 10.0501 7.02988 9.69442C6.95914 9.33879 6.78453 9.01212 6.52813 8.75572C6.27174 8.49933 5.94507 8.32472 5.58944 8.25398C5.2338 8.18324 4.86518 8.21954 4.53018 8.35831C4.19519 8.49707 3.90886 8.73205 3.70741 9.03354C3.50596 9.33503 3.39844 9.68949 3.39844 10.0521C3.39844 10.5383 3.59159 11.0046 3.93541 11.3484C4.27923 11.6923 4.74554 11.8854 5.23177 11.8854ZM5.23177 9.07431C5.42612 9.06945 5.61752 9.12263 5.78149 9.22708C5.94547 9.33152 6.07459 9.48247 6.15236 9.66066C6.23013 9.83884 6.25301 10.0362 6.21809 10.2274C6.18317 10.4187 6.09203 10.5952 5.9563 10.7344C5.82058 10.8736 5.64645 10.9691 5.45614 11.0089C5.26583 11.0487 5.068 11.0308 4.8879 10.9575C4.70781 10.8843 4.55363 10.759 4.44507 10.5978C4.33651 10.4365 4.2785 10.2465 4.27844 10.0521C4.27836 9.79694 4.37801 9.55187 4.55613 9.36919C4.73424 9.18651 4.97671 9.08069 5.23177 9.07431Z" fill="#8C90B6"/>
<path id="Vector_3" d="M4.82719 17.1102L8.49385 13.4435L10.4372 15.3869L8.71385 17.1102H9.93608L14.495 12.5513L18.3327 16.3585V15.1363L14.7883 11.6102C14.707 11.5296 14.5972 11.4844 14.4827 11.4844C14.3683 11.4844 14.2585 11.5296 14.1772 11.6102L11.0239 14.7635L8.78108 12.5269C8.69981 12.4463 8.58998 12.401 8.47552 12.401C8.36106 12.401 8.25123 12.4463 8.16997 12.5269L3.61719 17.1102H4.82719Z" fill="#8C90B6"/>
<path id="Vector_4" d="M18.4206 1.83377C18.4206 1.67169 18.3562 1.51625 18.2416 1.40165C18.127 1.28704 17.9715 1.22266 17.8095 1.22266H4.36502C4.20294 1.22266 4.0475 1.28704 3.9329 1.40165C3.81829 1.51625 3.75391 1.67169 3.75391 1.83377V2.44488H18.4206V1.83377Z" fill="#8C90B6"/>
<path id="Vector_5" d="M19.6306 4.27713C19.6306 4.11505 19.5663 3.95961 19.4517 3.84501C19.337 3.7304 19.1816 3.66602 19.0195 3.66602H3.13064C2.96857 3.66602 2.81313 3.7304 2.69852 3.84501C2.58392 3.95961 2.51953 4.11505 2.51953 4.27713V4.88824H19.6306V4.27713Z" fill="#8C90B6"/>
</g>
<defs>
<clipPath id="clip0_425_5324">
<rect width="22" height="22" fill="white"/>
</clipPath>
</defs>
</svg>
