<svg width="19" height="20" viewBox="0 0 19 20" fill="none" xmlns="http://www.w3.org/2000/svg">
<g id="arcticons:billthefarmercrossword">
<path id="Vector" d="M16.0355 3.00977H3.01196C2.57604 3.00977 2.22266 3.36315 2.22266 3.79907V16.8226C2.22266 17.2585 2.57604 17.6119 3.01196 17.6119H16.0355C16.4714 17.6119 16.8248 17.2585 16.8248 16.8226V3.79907C16.8248 3.36315 16.4714 3.00977 16.0355 3.00977Z" stroke="#FFC300" stroke-width="0.789306" stroke-linecap="round" stroke-linejoin="round"/>
<path id="Vector_2" d="M7.08991 3.00977V17.6119M11.9576 3.00977V17.6119M2.22266 7.87702H16.8248M2.22266 12.7447H16.8248M3.86717 7.0222H5.44579M3.86717 4.29476L4.65648 3.86498V7.0222M13.3452 4.91081C13.3452 4.77347 13.3722 4.63747 13.4248 4.51059C13.4773 4.3837 13.5544 4.26841 13.6515 4.17129C13.7486 4.07418 13.8639 3.99715 13.9908 3.94459C14.1177 3.89203 14.2536 3.86498 14.391 3.86498C14.5283 3.86498 14.6643 3.89203 14.7912 3.94459C14.9181 3.99715 15.0334 4.07418 15.1305 4.17129C15.2276 4.26841 15.3047 4.3837 15.3572 4.51059C15.4098 4.63747 15.4368 4.77347 15.4368 4.91081C15.441 5.04873 15.4158 5.18596 15.363 5.31344C15.3102 5.44092 15.231 5.55577 15.1306 5.65039C14.7075 6.02136 13.3452 7.0222 13.3452 7.0222H15.4368M4.913 15.1785C5.12234 15.1785 5.3231 15.0953 5.47113 14.9473C5.61915 14.7993 5.70231 14.5985 5.70231 14.3892C5.70231 14.1798 5.61915 13.9791 5.47113 13.8311C5.3231 13.683 5.12234 13.5999 4.913 13.5999" stroke="#FFC300" stroke-width="0.789306" stroke-linecap="round" stroke-linejoin="round"/>
<path id="Vector_3" d="M3.60977 16.4893C3.88944 16.7032 4.24185 16.7988 4.59127 16.7557H4.91173C5.12107 16.7557 5.32183 16.6725 5.46985 16.5245C5.61788 16.3765 5.70103 16.1757 5.70103 15.9664C5.70103 15.7571 5.61788 15.5563 5.46985 15.4083C5.32183 15.2603 5.12107 15.1771 4.91173 15.1771L4.10782 15.1775M3.60938 13.8625C3.8897 13.6492 4.24256 13.5544 4.59206 13.5985L4.91212 13.5993" stroke="#FFC300" stroke-width="0.789306" stroke-linecap="round" stroke-linejoin="round"/>
</g>
</svg>
