<svg width="22" height="22" viewBox="0 0 22 22" fill="none" xmlns="http://www.w3.org/2000/svg">
<g id="emojione:notebook-with-decorative-cover">
<path id="Vector" d="M14.0972 1.97556L9.9375 20.2591L18.4827 17.9051C19.4501 17.6149 20.0305 16.6153 19.7725 15.6156L16.3545 3.2654C16.0965 2.26577 15.0646 1.71759 14.0972 1.97556Z" fill="#3E4347"/>
<path id="Vector_2" d="M13.3878 1.78173L9.9375 20.2587L18.4182 17.5178C19.3856 17.1953 19.9338 16.1635 19.6113 15.1961L15.7095 2.97484C15.3871 2.00745 14.3552 1.49152 13.3878 1.78173Z" fill="#E9F3FA"/>
<path id="Vector_3" d="M12.7774 1.65167L4.55469 4.6828L10.101 20.2254L18.3238 17.1943C19.2911 16.8396 19.7748 15.7754 19.4201 14.8081L15.1314 2.71579C14.8089 1.78065 13.7448 1.29696 12.7774 1.65167Z" fill="#8C90B6"/>
<path id="Vector_4" d="M8.48586 4.87763L8.00217 5.94175L6.97029 5.42582L7.42174 4.3617L8.48586 4.87763ZM11.4847 3.74902L11.001 4.81314L9.96918 4.32945L10.4529 3.23308L11.4847 3.74902ZM14.4836 2.65266L14.0322 3.71678L13.0003 3.20084L13.4517 2.13672L14.4836 2.65266ZM7.51847 7.00587L7.06703 8.06999L6.03516 7.55406L6.4866 6.48994L7.51847 7.00587ZM10.5496 5.87726L10.0659 6.97363L9.03404 6.45769L9.51773 5.39357L10.5496 5.87726ZM13.5485 4.7809L13.0648 5.84502L12.0329 5.32908L12.5166 4.26496L13.5485 4.7809ZM9.61447 8.03775L9.13078 9.10187L8.0989 8.58593L8.55035 7.52181L9.61447 8.03775ZM15.6122 5.81277L15.1608 6.87689L14.1289 6.36095L14.5804 5.29683L15.6122 5.81277ZM8.64709 10.166L8.19564 11.2301L7.16377 10.7142L7.61521 9.65005L8.64709 10.166ZM11.6782 9.03738L11.1945 10.1015L10.1627 9.61781L10.6463 8.55369L11.6782 9.03738ZM14.6771 7.94101L14.1934 9.00513L13.1615 8.48919L13.6452 7.42507L14.6771 7.94101ZM10.7431 11.1979L10.2594 12.262L9.22752 11.746L9.71121 10.6819L10.7431 11.1979ZM13.742 10.0693L13.2583 11.1334L12.2264 10.6174L12.7101 9.55331L13.742 10.0693ZM16.7408 8.94064L16.2894 10.037L15.2575 9.52107L15.709 8.45695L16.7408 8.94064ZM9.7757 13.3261L9.32425 14.3902L8.29238 13.8743L8.74383 12.8102L9.7757 13.3261ZM12.8068 12.1975L12.3231 13.2616L11.2913 12.7457L11.775 11.6816L12.8068 12.1975ZM15.8057 11.1011L15.322 12.1652L14.2901 11.6493L14.7738 10.5852L15.8057 11.1011ZM11.8717 14.3257L11.388 15.3898L10.3561 14.9062L10.8398 13.842L11.8717 14.3257ZM14.8706 13.2294L14.3869 14.2935L13.355 13.7775L13.8387 12.7134L14.8706 13.2294ZM17.8695 12.1008L17.418 13.1649L16.3861 12.6812L16.8376 11.6171L17.8695 12.1008ZM10.9043 16.4862L10.4529 17.5503L9.42099 17.0344L9.87244 15.9703L10.9043 16.4862ZM13.9354 15.3576L13.4517 16.4217L12.4199 15.9058L12.9036 14.8417L13.9354 15.3576ZM16.9343 14.2612L16.4829 15.3254L15.4188 14.8094L15.9024 13.7453L16.9343 14.2612ZM13.0003 17.4858L12.5166 18.55L11.4847 18.0663L11.9684 16.9699L13.0003 17.4858ZM15.9992 16.3895L15.5155 17.4536L14.4836 16.9377L14.9673 15.8735L15.9992 16.3895ZM18.9981 15.2609L18.5466 16.325L17.5148 15.809L17.9662 14.7449L18.9981 15.2609Z" fill="#314C80"/>
<path id="Vector_5" d="M3.25965 5.16924C2.29227 5.52394 2.29227 6.07213 2.61473 7.03951L7.25816 19.9702C7.61287 20.9376 7.87084 21.0665 8.83822 20.7118L10.1281 20.2281L4.54949 4.68555L3.25965 5.16924Z" fill="#3E4347"/>
<path id="Vector_6" d="M14.1949 7.77855L9.10004 9.68107L8.39062 7.64957L13.4855 5.7793L14.1949 7.77855Z" fill="white"/>
</g>
</svg>
