<svg width="24" height="24" viewBox="0 0 24 24" fill="none" xmlns="http://www.w3.org/2000/svg">
<g id="fluent:text-number-list-ltr-24-regular">
<path id="Vector" d="M7.05691 3.83956C7.05679 3.69298 7.00642 3.55088 6.91421 3.43694C6.822 3.32299 6.69352 3.24411 6.55019 3.21342C6.40686 3.18274 6.25734 3.20211 6.12657 3.26831C5.99579 3.33451 5.89166 3.44354 5.83154 3.57722L5.82983 3.57979C5.75376 3.73289 5.66666 3.88026 5.5692 4.02072C5.38377 4.28818 5.12143 4.58726 4.79501 4.79149C4.72122 4.83487 4.65688 4.8926 4.60577 4.96125C4.55465 5.02991 4.51781 5.10811 4.49742 5.19123C4.47702 5.27436 4.47348 5.36073 4.48701 5.44525C4.50054 5.52976 4.53086 5.61071 4.57618 5.68332C4.6215 5.75593 4.68091 5.81872 4.75089 5.868C4.82088 5.91727 4.90003 5.95203 4.98367 5.97021C5.0673 5.9884 5.15374 5.98965 5.23787 5.97389C5.32199 5.95812 5.40211 5.92567 5.47349 5.87844C5.58031 5.81179 5.68114 5.74086 5.77514 5.66652V7.68489C5.77514 7.85486 5.84266 8.01788 5.96285 8.13807C6.08304 8.25826 6.24605 8.32578 6.41603 8.32578C6.586 8.32578 6.74901 8.25826 6.8692 8.13807C6.98939 8.01788 7.05691 7.85486 7.05691 7.68489V3.83956ZM19.4474 17.5118C19.4474 17.3419 19.3799 17.1789 19.2597 17.0587C19.1395 16.9385 18.9765 16.871 18.8065 16.871H11.1159C10.9459 16.871 10.7829 16.9385 10.6627 17.0587C10.5425 17.1789 10.475 17.3419 10.475 17.5118C10.475 17.6818 10.5425 17.8448 10.6627 17.965C10.7829 18.0852 10.9459 18.1527 11.1159 18.1527H18.8065C18.9765 18.1527 19.1395 18.0852 19.2597 17.965C19.3799 17.8448 19.4474 17.6818 19.4474 17.5118ZM19.4474 11.9524C19.4474 11.7824 19.3799 11.6194 19.2597 11.4992C19.1395 11.379 18.9765 11.3115 18.8065 11.3115H11.1159C10.9459 11.3115 10.7829 11.379 10.6627 11.4992C10.5425 11.6194 10.475 11.7824 10.475 11.9524C10.475 12.1223 10.5425 12.2853 10.6627 12.4055C10.7829 12.5257 10.9459 12.5932 11.1159 12.5932H18.8065C18.9765 12.5932 19.1395 12.5257 19.2597 12.4055C19.3799 12.2853 19.4474 12.1223 19.4474 11.9524ZM19.4474 6.40311C19.4474 6.23314 19.3799 6.07013 19.2597 5.94994C19.1395 5.82975 18.9765 5.76222 18.8065 5.76222H11.1159C10.9459 5.76222 10.7829 5.82975 10.6627 5.94994C10.5425 6.07013 10.475 6.23314 10.475 6.40311C10.475 6.57309 10.5425 6.7361 10.6627 6.85629C10.7829 6.97648 10.9459 7.044 11.1159 7.044H18.8065C18.9765 7.044 19.1395 6.97648 19.2597 6.85629C19.3799 6.7361 19.4474 6.57309 19.4474 6.40311ZM6.33057 10.4792C6.07422 10.4339 5.75292 10.5356 5.58714 10.7013C5.46565 10.8145 5.30496 10.8762 5.13893 10.8732C4.9729 10.8703 4.81448 10.8031 4.69706 10.6856C4.57964 10.5682 4.51238 10.4098 4.50945 10.2438C4.50652 10.0777 4.56815 9.91704 4.68136 9.79555C5.15647 9.32044 5.90332 9.10168 6.55446 9.21704C6.8937 9.27686 7.24234 9.43409 7.50725 9.73402C7.77727 10.0399 7.91143 10.439 7.91143 10.8893C7.91143 11.4191 7.67986 11.8122 7.39359 12.1027C7.15604 12.3446 6.85525 12.5394 6.6194 12.6915L6.55104 12.7351C6.40926 12.825 6.27208 12.922 6.14002 13.0256H7.27054C7.44052 13.0256 7.60353 13.0931 7.72372 13.2133C7.84391 13.3335 7.91143 13.4965 7.91143 13.6665C7.91143 13.8365 7.84391 13.9995 7.72372 14.1197C7.60353 14.2399 7.44052 14.3074 7.27054 14.3074H5.13425C4.96428 14.3074 4.80126 14.2399 4.68107 14.1197C4.56088 13.9995 4.49336 13.8365 4.49336 13.6665C4.49336 12.5445 5.33421 11.9976 5.83923 11.6695L5.8905 11.6353C6.16223 11.4601 6.34596 11.3405 6.48011 11.2046C6.59462 11.0884 6.62966 11.0013 6.62966 10.8893C6.62966 10.6988 6.57753 10.6176 6.54591 10.5817C6.48814 10.5241 6.4125 10.488 6.33143 10.4792H6.33057ZM4.46773 19.6738C4.46773 19.6738 4.5472 19.7456 4.47114 19.678L4.47627 19.6823L4.48738 19.6934C4.52758 19.732 4.57041 19.7676 4.61556 19.8002C4.69674 19.8609 4.80953 19.9353 4.9548 20.0079C5.24619 20.1532 5.66405 20.2899 6.2024 20.2899C6.74929 20.2899 7.2244 20.1344 7.57048 19.8284C7.91912 19.5208 8.09174 19.0953 8.07892 18.6663C8.06828 18.3206 7.93984 17.989 7.71489 17.7263C7.93621 17.4648 8.06695 17.1401 8.07892 16.7846C8.08572 16.5653 8.04362 16.3473 7.95568 16.1463C7.86774 15.9453 7.73616 15.7663 7.57048 15.6225C7.2244 15.3174 6.74929 15.1619 6.2024 15.1619C5.66405 15.1619 5.24619 15.2969 4.9548 15.4439C4.79881 15.5216 4.65253 15.6174 4.519 15.7293C4.50829 15.7385 4.49775 15.7479 4.48738 15.7575L4.47627 15.7686L4.47114 15.7729L4.46943 15.7755H4.46773L4.46687 15.7772C4.35193 15.8973 4.28818 16.0574 4.28907 16.2237C4.28997 16.3899 4.35544 16.5493 4.47167 16.6682C4.5879 16.7871 4.74579 16.8562 4.91199 16.8609C5.07819 16.8655 5.2397 16.8054 5.36241 16.6932C5.41338 16.6532 5.46837 16.6185 5.52647 16.5898C5.66234 16.5215 5.88537 16.4446 6.20154 16.4446C6.50917 16.4446 6.65956 16.5291 6.72109 16.5838C6.74522 16.6028 6.76459 16.6271 6.77765 16.6548C6.7907 16.6826 6.79709 16.713 6.79629 16.7436C6.79329 16.7819 6.7824 16.8191 6.76431 16.8529C6.74622 16.8867 6.72132 16.9164 6.69118 16.9402C6.61513 17.0068 6.46644 17.0854 6.20154 17.0854C6.03157 17.0854 5.86856 17.153 5.74837 17.2732C5.62818 17.3933 5.56065 17.5564 5.56065 17.7263C5.56065 17.8963 5.62818 18.0593 5.74837 18.1795C5.86856 18.2997 6.03157 18.3672 6.20154 18.3672C6.46644 18.3672 6.61513 18.4441 6.69118 18.5099C6.76894 18.5783 6.79458 18.6518 6.79629 18.7073C6.79709 18.7381 6.79071 18.7686 6.77766 18.7965C6.7646 18.8244 6.74524 18.8489 6.72109 18.868C6.65956 18.9218 6.51002 19.0072 6.20154 19.0072C5.96827 19.0122 5.73708 18.9624 5.52647 18.862C5.46833 18.833 5.41334 18.7981 5.36241 18.7577C5.2397 18.6455 5.07819 18.5854 4.91199 18.5901C4.74579 18.5947 4.5879 18.6638 4.47167 18.7827C4.35544 18.9016 4.28997 19.061 4.28907 19.2273C4.28818 19.3935 4.35193 19.5536 4.46687 19.6738H4.46773ZM4.46943 15.7755H4.46773C4.47371 15.7712 4.63863 15.6336 4.46773 15.7755H4.46943Z" fill="#A0A3BD"/>
</g>
</svg>
