<svg width="24" height="24" viewBox="0 0 24 24" fill="none" xmlns="http://www.w3.org/2000/svg">
<g id="fluent:clipboard-bullet-list-rtl-20-regular">
<path id="Vector" d="M15.3008 11.1004C15.0621 11.1004 14.8332 11.0056 14.6644 10.8368C14.4956 10.668 14.4008 10.4391 14.4008 10.2004C14.4008 9.9617 14.4956 9.73278 14.6644 9.56399C14.8332 9.39521 15.0621 9.30039 15.3008 9.30039C15.5395 9.30039 15.7684 9.39521 15.9372 9.56399C16.106 9.73278 16.2008 9.9617 16.2008 10.2004C16.2008 10.4391 16.106 10.668 15.9372 10.8368C15.7684 11.0056 15.5395 11.1004 15.3008 11.1004ZM15.3008 14.7004C15.0621 14.7004 14.8332 14.6056 14.6644 14.4368C14.4956 14.268 14.4008 14.0391 14.4008 13.8004C14.4008 13.5617 14.4956 13.3328 14.6644 13.164C14.8332 12.9952 15.0621 12.9004 15.3008 12.9004C15.5395 12.9004 15.7684 12.9952 15.9372 13.164C16.106 13.3328 16.2008 13.5617 16.2008 13.8004C16.2008 14.0391 16.106 14.268 15.9372 14.4368C15.7684 14.6056 15.5395 14.7004 15.3008 14.7004ZM14.4008 17.4004C14.4008 17.6391 14.4956 17.868 14.6644 18.0368C14.8332 18.2056 15.0621 18.3004 15.3008 18.3004C15.5395 18.3004 15.7684 18.2056 15.9372 18.0368C16.106 17.868 16.2008 17.6391 16.2008 17.4004C16.2008 17.1617 16.106 16.9328 15.9372 16.764C15.7684 16.5952 15.5395 16.5004 15.3008 16.5004C15.0621 16.5004 14.8332 16.5952 14.6644 16.764C14.4956 16.9328 14.4008 17.1617 14.4008 17.4004ZM13.2008 10.2004C13.2008 10.0413 13.1376 9.88865 13.025 9.77613C12.9125 9.6636 12.7599 9.60039 12.6008 9.60039H8.40078C8.24165 9.60039 8.08904 9.6636 7.97652 9.77613C7.864 9.88865 7.80078 10.0413 7.80078 10.2004C7.80078 10.3595 7.864 10.5121 7.97652 10.6247C8.08904 10.7372 8.24165 10.8004 8.40078 10.8004H12.6008C12.7599 10.8004 12.9125 10.7372 13.025 10.6247C13.1376 10.5121 13.2008 10.3595 13.2008 10.2004ZM13.2008 13.8004C13.2008 13.6413 13.1376 13.4886 13.025 13.3761C12.9125 13.2636 12.7599 13.2004 12.6008 13.2004H8.40078C8.24165 13.2004 8.08904 13.2636 7.97652 13.3761C7.864 13.4886 7.80078 13.6413 7.80078 13.8004C7.80078 13.9595 7.864 14.1121 7.97652 14.2247C8.08904 14.3372 8.24165 14.4004 8.40078 14.4004H12.6008C12.7599 14.4004 12.9125 14.3372 13.025 14.2247C13.1376 14.1121 13.2008 13.9595 13.2008 13.8004ZM13.2008 17.4004C13.2008 17.2413 13.1376 17.0886 13.025 16.9761C12.9125 16.8636 12.7599 16.8004 12.6008 16.8004H8.40078C8.24165 16.8004 8.08904 16.8636 7.97652 16.9761C7.864 17.0886 7.80078 17.2413 7.80078 17.4004C7.80078 17.5595 7.864 17.7121 7.97652 17.8247C8.08904 17.9372 8.24165 18.0004 8.40078 18.0004H12.6008C12.7599 18.0004 12.9125 17.9372 13.025 17.8247C13.1376 17.7121 13.2008 17.5595 13.2008 17.4004ZM10.2008 2.40039C9.82839 2.4002 9.4651 2.5155 9.16099 2.73042C8.85688 2.94534 8.62691 3.2493 8.50278 3.60039H6.60078C6.12339 3.60039 5.66555 3.79003 5.32799 4.1276C4.99042 4.46516 4.80078 4.923 4.80078 5.40039V19.8004C4.80078 20.2778 4.99042 20.7356 5.32799 21.0732C5.66555 21.4107 6.12339 21.6004 6.60078 21.6004H17.4008C17.8782 21.6004 18.336 21.4107 18.6736 21.0732C19.0111 20.7356 19.2008 20.2778 19.2008 19.8004V5.40039C19.2008 4.923 19.0111 4.46516 18.6736 4.1276C18.336 3.79003 17.8782 3.60039 17.4008 3.60039H15.4988C15.3747 3.2493 15.1447 2.94534 14.8406 2.73042C14.5365 2.5155 14.1732 2.4002 13.8008 2.40039H10.2008ZM9.60078 4.20039C9.60078 4.04126 9.66399 3.88865 9.77652 3.77613C9.88904 3.66361 10.0417 3.60039 10.2008 3.60039H13.8008C13.9599 3.60039 14.1125 3.66361 14.225 3.77613C14.3376 3.88865 14.4008 4.04126 14.4008 4.20039C14.4008 4.35952 14.3376 4.51213 14.225 4.62466C14.1125 4.73718 13.9599 4.80039 13.8008 4.80039H10.2008C10.0417 4.80039 9.88904 4.73718 9.77652 4.62466C9.66399 4.51213 9.60078 4.35952 9.60078 4.20039ZM6.60078 4.80039H8.50278C8.62691 5.15148 8.85688 5.45544 9.16099 5.67036C9.4651 5.88528 9.82839 6.00059 10.2008 6.00039H13.8008C14.1732 6.00059 14.5365 5.88528 14.8406 5.67036C15.1447 5.45544 15.3747 5.15148 15.4988 4.80039H17.4008C17.5599 4.80039 17.7125 4.86361 17.825 4.97613C17.9376 5.08865 18.0008 5.24126 18.0008 5.40039V19.8004C18.0008 19.9595 17.9376 20.1121 17.825 20.2247C17.7125 20.3372 17.5599 20.4004 17.4008 20.4004H6.60078C6.44165 20.4004 6.28904 20.3372 6.17652 20.2247C6.064 20.1121 6.00078 19.9595 6.00078 19.8004V5.40039C6.00078 5.24126 6.064 5.08865 6.17652 4.97613C6.28904 4.86361 6.44165 4.80039 6.60078 4.80039Z" fill="#F5772D"/>
</g>
</svg>
