<svg width="24" height="24" viewBox="0 0 24 24" fill="none" xmlns="http://www.w3.org/2000/svg">
<g id="fluent:video-clip-multiple-20-regular">
<path id="Vector" d="M8.39844 13.502V8.10681C8.39859 7.94337 8.44324 7.78306 8.52761 7.64307C8.61197 7.50309 8.73286 7.38872 8.87731 7.31225C9.02175 7.23577 9.18429 7.20007 9.34749 7.20898C9.51069 7.21788 9.66838 7.27106 9.80364 7.36281L14.1356 10.3028C14.2169 10.3577 14.2834 10.4316 14.3295 10.5182C14.3755 10.6047 14.3997 10.7013 14.3998 10.7993C14.3999 10.8973 14.376 10.9939 14.3302 11.0806C14.2843 11.1672 14.2179 11.2413 14.1368 11.2964L9.80484 14.246C9.66957 14.3381 9.51175 14.3915 9.34837 14.4006C9.18499 14.4097 9.02223 14.374 8.87759 14.2975C8.73295 14.221 8.61191 14.1065 8.52748 13.9663C8.44305 13.8262 8.39844 13.6656 8.39844 13.502ZM2.39844 6.59961C2.39844 5.80396 2.71451 5.0409 3.27712 4.47829C3.83973 3.91568 4.60279 3.59961 5.39844 3.59961H16.1984C16.9941 3.59961 17.7572 3.91568 18.3198 4.47829C18.8824 5.0409 19.1984 5.80396 19.1984 6.59961V14.9996C19.1984 15.7953 18.8824 16.5583 18.3198 17.1209C17.7572 17.6835 16.9941 17.9996 16.1984 17.9996H5.39844C4.60279 17.9996 3.83973 17.6835 3.27712 17.1209C2.71451 16.5583 2.39844 15.7953 2.39844 14.9996V6.59961ZM5.39844 4.79961C4.92105 4.79961 4.46321 4.98925 4.12565 5.32682C3.78808 5.66438 3.59844 6.12222 3.59844 6.59961V14.9996C3.59844 15.477 3.78808 15.9348 4.12565 16.2724C4.46321 16.61 4.92105 16.7996 5.39844 16.7996H16.1984C16.6758 16.7996 17.1337 16.61 17.4712 16.2724C17.8088 15.9348 17.9984 15.477 17.9984 14.9996V6.59961C17.9984 6.12222 17.8088 5.66438 17.4712 5.32682C17.1337 4.98925 16.6758 4.79961 16.1984 4.79961H5.39844ZM5.39844 19.1996C5.94564 19.928 6.81684 20.3996 7.79844 20.3996H16.7984C18.0715 20.3996 19.2924 19.8939 20.1926 18.9937C21.0927 18.0935 21.5984 16.8726 21.5984 15.5996V8.99961C21.5984 8.01801 21.1268 7.14681 20.3984 6.59961V15.5996C20.3984 16.5544 20.0192 17.4701 19.344 18.1452C18.6689 18.8203 17.7532 19.1996 16.7984 19.1996H5.39844Z" fill="#8C90B6"/>
</g>
</svg>
