<svg width="24" height="24" viewBox="0 0 24 24" fill="none" xmlns="http://www.w3.org/2000/svg">
<g id="foundation:bold">
<path id="Vector" d="M15.0535 11.7862C16.3367 11.5214 17.3959 10.3606 17.3959 8.66975C17.3959 6.85703 16.0718 5.20703 13.4851 5.20703H6.9609C6.79515 5.20703 6.63619 5.27288 6.51898 5.39008C6.40178 5.50728 6.33594 5.66624 6.33594 5.83199V18.1678C6.33594 18.3335 6.40178 18.4925 6.51898 18.6097C6.63619 18.7269 6.79515 18.7927 6.9609 18.7927H13.7092C16.3163 18.7927 17.6606 17.1631 17.6606 15.1061C17.6608 13.4158 16.5201 12.0101 15.0535 11.7862ZM9.22818 7.75319H12.8539C13.8316 7.75319 14.4427 8.34383 14.4427 9.17879C14.4427 10.0546 13.8316 10.6046 12.8539 10.6046H9.22818V7.75319ZM12.9758 16.2468H9.22818V13.1508H12.976C14.0963 13.1508 14.7074 13.8434 14.7074 14.6988C14.7074 15.6766 14.0555 16.2468 12.9758 16.2468Z" fill="#A0A3BD"/>
</g>
</svg>
