<svg width="30" height="30" viewBox="0 0 30 30" fill="none" xmlns="http://www.w3.org/2000/svg">
<g id="gala:file-spreadsheet">
<g id="galaFileSpreadsheet0">
<path id="galaFileSpreadsheet1" d="M3.75 5.625V24.366" stroke="#364E79" stroke-width="2" stroke-linecap="round"/>
<path id="galaFileSpreadsheet2" d="M26.25 11.25V24.375" stroke="#364E79" stroke-width="2" stroke-linecap="round" stroke-linejoin="round"/>
<path id="galaFileSpreadsheet3" d="M7.5 1.875H16.875" stroke="#364E79" stroke-width="2" stroke-linecap="round" stroke-linejoin="round"/>
<path id="galaFileSpreadsheet4" d="M7.5 28.125H22.5" stroke="#364E79" stroke-width="2" stroke-linecap="round"/>
<path id="galaFileSpreadsheet5" d="M26.25 24.375C26.2602 26.2479 24.375 28.125 22.5 28.125" stroke="#364E79" stroke-width="2" stroke-linecap="round" stroke-linejoin="round"/>
<path id="galaFileSpreadsheet6" d="M3.75 24.375C3.75 26.25 5.625 28.125 7.5 28.125" stroke="#364E79" stroke-width="2" stroke-linecap="round" stroke-linejoin="round"/>
<path id="galaFileSpreadsheet7" d="M3.75 5.62305C3.75 3.75077 5.625 1.91752 7.5 1.87577" stroke="#364E79" stroke-width="2" stroke-linecap="round" stroke-linejoin="round"/>
<path id="galaFileSpreadsheet8" d="M26.2398 11.2584L16.875 1.875" stroke="#364E79" stroke-width="2" stroke-linecap="round" stroke-linejoin="round"/>
<path id="galaFileSpreadsheet9" d="M16.875 7.5C16.8808 9.3648 18.7576 11.25 20.625 11.25" stroke="#364E79" stroke-width="2" stroke-linecap="round" stroke-linejoin="round"/>
<path id="galaFileSpreadsheeta" d="M16.875 7.5V1.875" stroke="#364E79" stroke-width="2" stroke-linecap="round" stroke-linejoin="round"/>
<path id="galaFileSpreadsheetb" d="M20.625 11.25H26.25" stroke="#364E79" stroke-width="2" stroke-linecap="round" stroke-linejoin="round"/>
<path id="galaFileSpreadsheetc" d="M7.5 22.5H18.75" stroke="#364E79" stroke-width="2" stroke-linecap="round" stroke-linejoin="round"/>
<path id="galaFileSpreadsheetd" d="M7.5 18.75H18.75" stroke="#364E79" stroke-width="2" stroke-linecap="round" stroke-linejoin="round"/>
<path id="galaFileSpreadsheete" d="M9.375 16.875V24.375" stroke="#364E79" stroke-width="2" stroke-linecap="round" stroke-linejoin="round"/>
<path id="galaFileSpreadsheetf" d="M13.125 16.875V24.375" stroke="#364E79" stroke-width="2" stroke-linecap="round" stroke-linejoin="round"/>
<path id="galaFileSpreadsheetg" d="M16.875 16.875V24.375" stroke="#364E79" stroke-width="2" stroke-linecap="round" stroke-linejoin="round"/>
</g>
</g>
</svg>
