<svg width="18" height="18" viewBox="0 0 18 18" fill="none" xmlns="http://www.w3.org/2000/svg">
<g id="gala:file-spreadsheet">
<g id="galaFileSpreadsheet0">
<path id="galaFileSpreadsheet1" d="M2.25 3.375V14.6196" stroke="#8C90B6" stroke-linecap="round"/>
<path id="galaFileSpreadsheet2" d="M15.75 6.75V14.625" stroke="#8C90B6" stroke-linecap="round" stroke-linejoin="round"/>
<path id="galaFileSpreadsheet3" d="M4.5 1.125H10.125" stroke="#8C90B6" stroke-linecap="round" stroke-linejoin="round"/>
<path id="galaFileSpreadsheet4" d="M4.5 16.875H13.5" stroke="#8C90B6" stroke-linecap="round"/>
<path id="galaFileSpreadsheet5" d="M15.75 14.625C15.7561 15.7487 14.625 16.875 13.5 16.875" stroke="#8C90B6" stroke-linecap="round" stroke-linejoin="round"/>
<path id="galaFileSpreadsheet6" d="M2.25 14.625C2.25 15.75 3.375 16.875 4.5 16.875" stroke="#8C90B6" stroke-linecap="round" stroke-linejoin="round"/>
<path id="galaFileSpreadsheet7" d="M2.25 3.37305C2.25 2.24968 3.375 1.14973 4.5 1.12468" stroke="#8C90B6" stroke-linecap="round" stroke-linejoin="round"/>
<path id="galaFileSpreadsheet8" d="M15.7439 6.75505L10.125 1.125" stroke="#8C90B6" stroke-linecap="round" stroke-linejoin="round"/>
<path id="galaFileSpreadsheet9" d="M10.125 4.5C10.1285 5.61888 11.2545 6.75 12.375 6.75" stroke="#8C90B6" stroke-linecap="round" stroke-linejoin="round"/>
<path id="galaFileSpreadsheeta" d="M10.125 4.5V1.125" stroke="#8C90B6" stroke-linecap="round" stroke-linejoin="round"/>
<path id="galaFileSpreadsheetb" d="M12.375 6.75H15.75" stroke="#8C90B6" stroke-linecap="round" stroke-linejoin="round"/>
<path id="galaFileSpreadsheetc" d="M4.5 13.5H11.25" stroke="#8C90B6" stroke-linecap="round" stroke-linejoin="round"/>
<path id="galaFileSpreadsheetd" d="M4.5 11.25H11.25" stroke="#8C90B6" stroke-linecap="round" stroke-linejoin="round"/>
<path id="galaFileSpreadsheete" d="M5.625 10.125V14.625" stroke="#8C90B6" stroke-linecap="round" stroke-linejoin="round"/>
<path id="galaFileSpreadsheetf" d="M7.875 10.125V14.625" stroke="#8C90B6" stroke-linecap="round" stroke-linejoin="round"/>
<path id="galaFileSpreadsheetg" d="M10.125 10.125V14.625" stroke="#8C90B6" stroke-linecap="round" stroke-linejoin="round"/>
</g>
</g>
</svg>
