<svg width="36" height="36" viewBox="0 0 36 36" fill="none" xmlns="http://www.w3.org/2000/svg">
<g id="Group 1000005200">
<circle id="Ellipse 3950" cx="18" cy="18" r="18" fill="#EFF3FC"/>
<g id="Group">
<path id="Vector" d="M20.0775 17.3066H15.9237C15.159 17.3066 14.5391 17.9265 14.5391 18.6912V25.6143C14.5391 26.3789 15.159 26.9989 15.9237 26.9989H20.0775C20.8422 26.9989 21.4621 26.3789 21.4621 25.6143V18.6912C21.4621 17.9265 20.8422 17.3066 20.0775 17.3066Z" stroke="#8C90B6" stroke-linecap="round" stroke-linejoin="round"/>
<path id="Vector_2" d="M11.0769 18.6922V22.846M24.9231 18.6922V22.846M11.0769 20.0768H9.69231C9.5087 20.0768 9.33261 20.0039 9.20277 19.874C9.07294 19.7442 9 19.5681 9 19.3845V17.9999C9 15.613 9.94821 13.3238 11.636 11.636C13.3239 9.9482 15.6131 9 18 9C19.1819 9 20.3522 9.23279 21.4442 9.68508C22.5361 10.1374 23.5282 10.8003 24.364 11.636C25.1997 12.4717 25.8626 13.4639 26.3149 14.5558C26.7672 15.6477 27 16.818 27 17.9999V19.3845C27 19.5681 26.9271 19.7442 26.7972 19.874C26.6674 20.0039 26.4913 20.0768 26.3077 20.0768H24.9231M18 20.7691V22.1537" stroke="#8C90B6" stroke-linecap="round" stroke-linejoin="round"/>
</g>
</g>
</svg>
