<svg width="30" height="30" viewBox="0 0 30 30" fill="none" xmlns="http://www.w3.org/2000/svg">
<g id="ic:baseline-tips-and-updates">
<path id="Vector" d="M23.4848 2.99013L23.75 2.40886L24.0152 2.99013L24.1702 3.32978L24.5099 3.48476L25.0911 3.75L24.5099 4.01524L24.1702 4.17022L24.0152 4.50987L23.75 5.09114L23.4848 4.50987L23.3298 4.17022L22.9901 4.01524L22.4089 3.75L22.9901 3.48476L23.3298 3.32978L23.4848 2.99013ZM27.5335 9.96646L27.6065 10L27.5335 10.0335L27.5 10.1065L27.4665 10.0335L27.3935 10L27.4665 9.96646L27.5 9.89352L27.5335 9.96646ZM12.364 26C12.0886 26.3062 11.6901 26.5 11.25 26.5C10.8099 26.5 10.4114 26.3062 10.136 26H12.364ZM15.25 22.75H7.25V22.25H15.25V22.75ZM19.625 11.875C19.625 15.8919 16.9855 18.1522 15.6349 19H6.86514C5.51448 18.1522 2.875 15.8919 2.875 11.875C2.875 7.25229 6.62729 3.5 11.25 3.5C15.8727 3.5 19.625 7.25229 19.625 11.875Z" stroke="#364E79" stroke-width="2"/>
</g>
</svg>
