<svg width="20" height="20" viewBox="0 0 20 20" fill="none" xmlns="http://www.w3.org/2000/svg">
<g id="ic:baseline-tips-and-updates">
<path id="Vector" d="M18.0172 6.59594L18.1853 6.51865L18.2626 6.35057L18.3333 6.19676L18.4041 6.35056L18.4814 6.51865L18.6494 6.59594L18.8032 6.66667L18.6494 6.7374L18.4814 6.81469L18.4041 6.98277L18.3333 7.13657L18.2626 6.98277L18.1853 6.81469L18.0172 6.7374L17.8634 6.66667L18.0172 6.59594ZM16.4091 2.82845L16.2393 2.90595L16.1618 3.07577L15.8333 3.79557L15.5049 3.07577L15.4274 2.90595L15.2576 2.82845L14.5378 2.5L15.2576 2.17155L15.4274 2.09406L15.5049 1.92423L15.8333 1.20443L16.1618 1.92423L16.2393 2.09406L16.4091 2.17155L17.1289 2.5L16.4091 2.82845ZM8.55297 17.1667C8.36449 17.5596 7.962 17.8333 7.5 17.8333C7.038 17.8333 6.63551 17.5596 6.44703 17.1667H8.55297ZM10.3333 15.3333H4.66667V14.6667H10.3333V15.3333ZM13.25 7.91667C13.25 10.7172 11.3823 12.273 10.4708 12.8333H4.52925C3.61768 12.273 1.75 10.7172 1.75 7.91667C1.75 4.74281 4.32614 2.16667 7.5 2.16667C10.6739 2.16667 13.25 4.74281 13.25 7.91667Z" stroke="#8C90B6"/>
</g>
</svg>
