<svg width="20" height="20" viewBox="0 0 20 20" fill="none" xmlns="http://www.w3.org/2000/svg">
<g id="la:space-shuttle" clip-path="url(#clip0_425_5312)">
<path id="Vector" d="M1.25 2.5V6.25H0V8.125H0.625V11.875H0V13.75H1.25V17.5H4.10188C5.64009 17.4992 7.11512 16.888 8.20312 15.8006L10.9181 13.1056L15.9375 12.6756C16.7308 12.6121 17.4994 12.37 18.186 11.9677C18.8726 11.5653 19.4594 11.0129 19.9025 10.3519L20.1169 10L19.9025 9.64813C19.4593 8.9872 18.8725 8.43497 18.1859 8.03269C17.4993 7.63042 16.7307 7.38849 15.9375 7.325L10.9181 6.895L8.30062 4.27812L8.20312 4.2C7.11491 3.11249 5.63972 2.50111 4.10125 2.5H1.25ZM2.5 3.75H4.10188C5.30948 3.7488 6.4683 4.2264 7.32438 5.07812L9.10188 6.875H6.25V8.125H10.625L15.8206 8.555C16.875 8.6425 17.7906 9.21125 18.4769 10C17.7906 10.7887 16.875 11.3575 15.8206 11.4456L10.5656 11.875H6.25V13.125H9.10188L7.32438 14.9219C6.4683 15.7736 5.30948 16.2512 4.10188 16.25H2.5V11.875H1.875V8.125H2.5V3.75ZM15 9.375V10.625H16.25V9.375H15ZM3.75 13.125V15H5V13.125H3.75Z" fill="#8C90B6"/>
</g>
<defs>
<clipPath id="clip0_425_5312">
<rect width="20" height="20" fill="white"/>
</clipPath>
</defs>
</svg>
