<svg width="30" height="30" viewBox="0 0 30 30" fill="none" xmlns="http://www.w3.org/2000/svg">
<g id="la:space-shuttle" clip-path="url(#clip0_2065_17934)">
<path id="Vector" d="M1.875 3.75V9.375H0V12.1875H0.9375V17.8125H0V20.625H1.875V26.25H6.15281C8.46014 26.2487 10.6727 25.332 12.3047 23.7009L16.3772 19.6584L23.9062 19.0134C25.0962 18.9181 26.2491 18.5551 27.279 17.9515C28.3089 17.3479 29.1891 16.5194 29.8538 15.5278L30.1753 15L29.8538 14.4722C29.189 13.4808 28.3088 12.6525 27.2789 12.049C26.249 11.4456 25.0961 11.0827 23.9062 10.9875L16.3772 10.3425L12.4509 6.41719L12.3047 6.3C10.6724 4.66874 8.45957 3.75166 6.15188 3.75H1.875ZM3.75 5.625H6.15281C7.96422 5.6232 9.70245 6.33959 10.9866 7.61719L13.6528 10.3125H9.375V12.1875H15.9375L23.7309 12.8325C25.3125 12.9637 26.6859 13.8169 27.7153 15C26.6859 16.1831 25.3125 17.0363 23.7309 17.1684L15.8484 17.8125H9.375V19.6875H13.6528L10.9866 22.3828C9.70245 23.6604 7.96422 24.3768 6.15281 24.375H3.75V17.8125H2.8125V12.1875H3.75V5.625ZM22.5 14.0625V15.9375H24.375V14.0625H22.5ZM5.625 19.6875V22.5H7.5V19.6875H5.625Z" fill="#364E79"/>
</g>
<defs>
<clipPath id="clip0_2065_17934">
<rect width="30" height="30" fill="white"/>
</clipPath>
</defs>
</svg>
