<svg width="22" height="22" viewBox="0 0 22 22" fill="none" xmlns="http://www.w3.org/2000/svg">
<g id="material-symbols:share">
<path id="Vector" d="M16.1562 19.7975C15.4397 19.7975 14.8306 19.5467 14.329 19.0451C13.8274 18.5435 13.5766 17.9344 13.5766 17.2178C13.5766 17.1175 13.5837 17.0135 13.598 16.9057C13.6124 16.7979 13.6339 16.7013 13.6625 16.6159L7.60028 13.0903C7.35665 13.3053 7.08434 13.4738 6.78338 13.5959C6.48242 13.7181 6.16712 13.7788 5.8375 13.7782C5.12092 13.7782 4.51183 13.5274 4.01022 13.0258C3.50862 12.5242 3.25781 11.9151 3.25781 11.1986C3.25781 10.482 3.50862 9.87289 4.01022 9.37128C4.51183 8.86968 5.12092 8.61887 5.8375 8.61887C6.16712 8.61887 6.48242 8.67993 6.78338 8.80203C7.08434 8.92414 7.35665 9.09239 7.60028 9.30679L13.6625 5.78122C13.6339 5.69523 13.6124 5.59864 13.598 5.49144C13.5837 5.38424 13.5766 5.28019 13.5766 5.17929C13.5766 4.46272 13.8274 3.85362 14.329 3.35202C14.8306 2.85041 15.4397 2.59961 16.1562 2.59961C16.8728 2.59961 17.4819 2.85041 17.9835 3.35202C18.4851 3.85362 18.7359 4.46272 18.7359 5.17929C18.7359 5.89587 18.4851 6.50497 17.9835 7.00657C17.4819 7.50818 16.8728 7.75898 16.1562 7.75898C15.8266 7.75898 15.5113 7.69821 15.2104 7.57668C14.9094 7.45515 14.6371 7.28661 14.3935 7.07106L8.33119 10.5966C8.35986 10.6826 8.38135 10.7795 8.39569 10.8873C8.41002 10.995 8.41718 11.0988 8.41718 11.1986C8.41718 11.2989 8.41002 11.4029 8.39569 11.5107C8.38135 11.6185 8.35986 11.7151 8.33119 11.8005L14.3935 15.3261C14.6371 15.1111 14.9094 14.9428 15.2104 14.8213C15.5113 14.6998 15.8266 14.6387 16.1562 14.6381C16.8728 14.6381 17.4819 14.8889 17.9835 15.3905C18.4851 15.8922 18.7359 16.5012 18.7359 17.2178C18.7359 17.9344 18.4851 18.5435 17.9835 19.0451C17.4819 19.5467 16.8728 19.7975 16.1562 19.7975Z" fill="#A0A3BD"/>
</g>
</svg>
