<svg width="24" height="24" viewBox="0 0 24 24" fill="none" xmlns="http://www.w3.org/2000/svg">
<g id="mdi:file-question-outline">
<path id="Vector" d="M14 2H6C5.46957 2 4.96086 2.21071 4.58579 2.58579C4.21071 2.96086 4 3.46957 4 4V20C4 21.11 4.89 22 6 22H18C19.11 22 20 21.11 20 20V8L14 2ZM18 20H6V4H13V9H18V20ZM15 13C15 14.89 12.75 15.07 12.75 16.76H11.25C11.25 14.32 13.5 14.5 13.5 13C13.5 12.18 12.83 11.5 12 11.5C11.17 11.5 10.5 12.18 10.5 13H9C9 11.35 10.34 10 12 10C13.66 10 15 11.35 15 13ZM12.75 17.5V19H11.25V17.5H12.75Z" fill="#008081"/>
</g>
</svg>
