<svg width="24" height="24" viewBox="0 0 24 24" fill="none" xmlns="http://www.w3.org/2000/svg">
<g id="vuesax/outline/note-2">
<g id="note-2">
<path id="Vector" d="M15.8081 20.1805C15.5481 20.1805 15.2781 20.1705 14.9881 20.1405C14.4681 20.1005 13.8781 20.0005 13.2681 19.8505L11.5881 19.4505C6.97812 18.3605 5.46812 15.9205 6.54812 11.3205L7.52812 7.1305C7.74812 6.1805 8.00812 5.4105 8.32812 4.7705C10.0481 1.2205 13.3381 1.5405 15.6781 2.0905L17.3481 2.4805C19.6881 3.0305 21.1681 3.9005 21.9981 5.2305C22.8181 6.5605 22.9481 8.2705 22.3981 10.6105L21.4181 14.7905C20.5581 18.4505 18.7681 20.1805 15.8081 20.1805ZM13.1181 3.2505C11.4481 3.2505 10.3881 3.9405 9.67812 5.4205C9.41812 5.9605 9.18812 6.6305 8.98812 7.4705L8.00812 11.6605C7.11812 15.4405 8.14812 17.0905 11.9281 17.9905L13.6081 18.3905C14.1481 18.5205 14.6581 18.6005 15.1181 18.6405C17.8381 18.9105 19.1881 17.7205 19.9481 14.4505L20.9281 10.2705C21.3781 8.3405 21.3181 6.9905 20.7181 6.0205C20.1181 5.0505 18.9381 4.3905 16.9981 3.9405L15.3281 3.5505C14.4981 3.3505 13.7581 3.2505 13.1181 3.2505Z" fill="#364E79"/>
<path id="Vector_2" d="M8.32907 22.2497C5.75908 22.2497 4.11907 20.7097 3.06907 17.4597L1.78907 13.5097C0.369075 9.10968 1.63907 6.62968 6.01907 5.20968L7.59907 4.69968C8.11907 4.53968 8.50907 4.42968 8.85907 4.36968C9.14907 4.30968 9.42908 4.41968 9.59908 4.64968C9.76908 4.87968 9.79908 5.17968 9.67908 5.43968C9.41908 5.96968 9.18907 6.63968 8.99907 7.47968L8.01908 11.6697C7.12908 15.4497 8.15907 17.0997 11.9391 17.9997L13.6191 18.3997C14.1591 18.5297 14.6691 18.6097 15.1291 18.6497C15.4491 18.6797 15.7091 18.8997 15.7991 19.2097C15.8791 19.5197 15.7591 19.8397 15.4991 20.0197C14.8391 20.4697 14.0091 20.8497 12.9591 21.1897L11.3791 21.7097C10.2291 22.0697 9.22907 22.2497 8.32907 22.2497ZM7.77908 6.21968L6.48907 6.63968C2.91907 7.78968 2.06907 9.46968 3.21907 13.0497L4.49907 16.9997C5.65907 20.5697 7.33908 21.4297 10.9091 20.2797L12.4891 19.7597C12.5491 19.7397 12.5991 19.7197 12.6591 19.6997L11.5991 19.4497C6.98908 18.3597 5.47907 15.9197 6.55907 11.3197L7.53907 7.12968C7.60908 6.80968 7.68907 6.49968 7.77908 6.21968Z" fill="#364E79"/>
<path id="Vector_3" d="M17.4894 10.5098C17.4294 10.5098 17.3694 10.4998 17.2994 10.4898L12.4494 9.25978C12.0494 9.15978 11.8094 8.74978 11.9094 8.34978C12.0094 7.94978 12.4194 7.70978 12.8194 7.80978L17.6694 9.03978C18.0694 9.13978 18.3094 9.54978 18.2094 9.94978C18.1294 10.2798 17.8194 10.5098 17.4894 10.5098Z" fill="#364E79"/>
<path id="Vector_4" d="M14.5611 13.8909C14.5011 13.8909 14.4411 13.8809 14.3711 13.8709L11.4611 13.1309C11.0611 13.0309 10.8211 12.6209 10.9211 12.2209C11.0211 11.8209 11.4311 11.5809 11.8311 11.6809L14.7411 12.4209C15.1411 12.5209 15.3811 12.9309 15.2811 13.3309C15.2011 13.6709 14.9011 13.8909 14.5611 13.8909Z" fill="#364E79"/>
</g>
</g>
</svg>
