<svg width="24" height="24" viewBox="0 0 24 24" fill="none" xmlns="http://www.w3.org/2000/svg">
<g id="ph:link-light">
<g id="Vector">
<path fill-rule="evenodd" clip-rule="evenodd" d="M15.7527 3.18555C17.0952 3.18555 18.3828 3.71819 19.333 4.66658V4.66939C19.8036 5.13968 20.1768 5.69811 20.4314 6.31276C20.6861 6.9274 20.817 7.58621 20.8168 8.2515C20.8167 8.91679 20.6854 9.57552 20.4304 10.19C20.1755 10.8045 19.802 11.3628 19.3311 11.8328L17.0708 14.0941C16.1579 15.0076 14.9304 15.5376 13.6396 15.5758C12.3487 15.6139 11.092 15.1573 10.1268 14.2994C10.0149 14.1999 9.94708 14.0601 9.93829 13.9107C9.9295 13.7612 9.98043 13.6144 10.0799 13.5025C10.1793 13.3906 10.3192 13.3228 10.4686 13.314C10.6181 13.3052 10.7649 13.3562 10.8768 13.4556C11.6276 14.1226 12.6048 14.4774 13.6086 14.4476C14.6124 14.4178 15.5669 14.0056 16.2768 13.2953L18.538 11.0275C19.2767 10.2888 19.6917 9.2869 19.6917 8.2422C19.6917 7.19751 19.2767 6.1956 18.538 5.45689C17.7993 4.71818 16.7974 4.30317 15.7527 4.30317C14.708 4.30317 13.7061 4.71818 12.9674 5.45689L12.0355 6.39439C11.93 6.49994 11.7868 6.55923 11.6375 6.55923C11.4883 6.55923 11.3451 6.49994 11.2396 6.39439C11.134 6.28884 11.0747 6.14569 11.0747 5.99642C11.0747 5.84715 11.134 5.704 11.2396 5.59845L12.1724 4.66658C13.1226 3.71819 14.4102 3.18555 15.7527 3.18555Z" fill="#8C90B6"/>
<path d="M12.764 17.6041C12.8163 17.6563 12.8577 17.7184 12.886 17.7866C12.9144 17.8549 12.9289 17.9281 12.9289 18.002C12.9289 18.076 12.9144 18.1492 12.886 18.2174C12.8577 18.2857 12.8163 18.3478 12.764 18.4L11.8311 19.3319C10.8816 20.2814 9.5937 20.8149 8.25083 20.8149C6.90795 20.8149 5.62007 20.2814 4.67051 19.3319C3.72096 18.3823 3.1875 17.0945 3.1875 15.7516C3.1875 14.4087 3.72096 13.1208 4.67051 12.1713L6.93083 9.91001C7.84381 8.996 9.07168 8.46559 10.363 8.42742C11.6543 8.38925 12.9114 8.8462 13.8768 9.7047C13.9322 9.75395 13.9773 9.81362 14.0097 9.88032C14.042 9.94702 14.0609 10.0194 14.0652 10.0934C14.0696 10.1674 14.0593 10.2416 14.035 10.3116C14.0107 10.3816 13.9729 10.4462 13.9236 10.5016C13.8744 10.557 13.8147 10.6021 13.748 10.6345C13.6813 10.6668 13.6089 10.6857 13.5349 10.6901C13.4609 10.6944 13.3868 10.6841 13.3168 10.6598C13.2467 10.6355 13.1822 10.5977 13.1268 10.5485C12.376 9.88151 11.3987 9.52665 10.3949 9.55645C9.39114 9.58625 8.43667 9.99846 7.72676 10.7088L5.46551 12.9663C4.7268 13.705 4.3118 14.7069 4.3118 15.7516C4.3118 16.7963 4.7268 17.7982 5.46551 18.5369C6.20422 19.2756 7.20613 19.6906 8.25083 19.6906C9.29552 19.6906 10.2974 19.2756 11.0361 18.5369L11.968 17.6041C12.0203 17.5518 12.0823 17.5103 12.1506 17.482C12.2189 17.4537 12.2921 17.4391 12.366 17.4391C12.4399 17.4391 12.5131 17.4537 12.5814 17.482C12.6497 17.5103 12.7117 17.5518 12.764 17.6041Z" fill="#8C90B6"/>
</g>
</g>
</svg>
