<svg width="30" height="30" viewBox="0 0 30 30" fill="none" xmlns="http://www.w3.org/2000/svg">
<g id="ph:link-light">
<g id="Vector">
<path fill-rule="evenodd" clip-rule="evenodd" d="M19.687 3.98047C21.3651 3.98047 22.9746 4.64628 24.1624 5.83176V5.83527C24.7506 6.42314 25.2171 7.12118 25.5354 7.88948C25.8537 8.65779 26.0174 9.48129 26.0171 10.3129C26.0169 11.1445 25.8528 11.9679 25.5341 12.7361C25.2155 13.5042 24.7485 14.202 24.16 14.7896L21.3346 17.6161C20.1935 18.758 18.6592 19.4206 17.0456 19.4683C15.432 19.516 13.8611 18.9452 12.6545 17.8728C12.5147 17.7485 12.4299 17.5737 12.419 17.3869C12.408 17.2001 12.4716 17.0165 12.596 16.8767C12.7203 16.7368 12.8951 16.6521 13.0819 16.6411C13.2687 16.6301 13.4522 16.6938 13.592 16.8181C14.5305 17.6518 15.7521 18.0953 17.0068 18.0581C18.2616 18.0208 19.4547 17.5056 20.342 16.6177L23.1686 13.7829C24.092 12.8595 24.6108 11.6072 24.6108 10.3013C24.6108 8.99542 24.092 7.74303 23.1686 6.81965C22.2452 5.89626 20.9928 5.3775 19.687 5.3775C18.3811 5.3775 17.1287 5.89626 16.2053 6.81965L15.0405 7.99152C14.9086 8.12346 14.7296 8.19758 14.543 8.19758C14.3564 8.19758 14.1775 8.12346 14.0456 7.99152C13.9136 7.85959 13.8395 7.68064 13.8395 7.49406C13.8395 7.30748 13.9136 7.12853 14.0456 6.9966L15.2116 5.83176C16.3993 4.64628 18.0089 3.98047 19.687 3.98047Z" fill="#364E79"/>
<path d="M15.951 22.0036C16.0164 22.0689 16.0683 22.1465 16.1037 22.2318C16.139 22.3172 16.1573 22.4087 16.1573 22.5011C16.1573 22.5935 16.139 22.685 16.1037 22.7703C16.0683 22.8557 16.0164 22.9332 15.951 22.9986L14.785 24.1634C13.5981 25.3503 11.9882 26.0172 10.3096 26.0172C8.63103 26.0172 7.02118 25.3503 5.83424 24.1634C4.64729 22.9764 3.98047 21.3666 3.98047 19.688C3.98047 18.0094 4.64729 16.3996 5.83424 15.2126L8.65963 12.3861C9.80086 11.2435 11.3357 10.5805 12.9499 10.5328C14.564 10.4851 16.1353 11.0563 17.342 12.1294C17.4113 12.191 17.4677 12.2656 17.5082 12.3489C17.5486 12.4323 17.5722 12.5228 17.5776 12.6153C17.5831 12.7078 17.5703 12.8005 17.5399 12.888C17.5095 12.9756 17.4622 13.0563 17.4006 13.1255C17.3391 13.1948 17.2645 13.2512 17.1811 13.2916C17.0977 13.3321 17.0072 13.3557 16.9147 13.3611C16.8222 13.3665 16.7296 13.3537 16.642 13.3233C16.5545 13.293 16.4738 13.2457 16.4045 13.1841C15.4661 12.3504 14.2445 11.9068 12.9898 11.9441C11.735 11.9813 10.5419 12.4966 9.65455 13.3845L6.82799 16.2064C5.9046 17.1298 5.38584 18.3821 5.38584 19.688C5.38584 20.9939 5.9046 22.2463 6.82799 23.1696C7.75137 24.093 9.00376 24.6118 10.3096 24.6118C11.6155 24.6118 12.8679 24.093 13.7913 23.1696L14.9561 22.0036C15.0214 21.9383 15.099 21.8864 15.1843 21.851C15.2697 21.8156 15.3612 21.7974 15.4536 21.7974C15.546 21.7974 15.6375 21.8156 15.7228 21.851C15.8082 21.8864 15.8857 21.9383 15.951 22.0036Z" fill="#364E79"/>
</g>
</g>
</svg>
