<svg width="30" height="30" viewBox="0 0 30 30" fill="none" xmlns="http://www.w3.org/2000/svg">
<g id="streamline:entertainment-walk-man-player-tapes-tape-headphones-music-walkman-headset-audio" clip-path="url(#clip0_420_5745)">
<g id="Group">
<path id="Vector" d="M18.2121 13.9297H11.7835C10.6 13.9297 9.64062 14.8891 9.64062 16.0725V26.7868C9.64062 27.9703 10.6 28.9297 11.7835 28.9297H18.2121C19.3955 28.9297 20.3549 27.9703 20.3549 26.7868V16.0725C20.3549 14.8891 19.3955 13.9297 18.2121 13.9297Z" stroke="#364E79" stroke-width="2" stroke-linecap="round" stroke-linejoin="round"/>
<path id="Vector_2" d="M4.2846 16.0723V22.5008M25.7132 16.0723V22.5008M4.2846 18.2151H2.14174C1.85758 18.2151 1.58506 18.1022 1.38413 17.9013C1.18319 17.7004 1.07031 17.4279 1.07031 17.1437V15.0008C1.07031 11.3068 2.53778 7.76397 5.1499 5.15185C7.76201 2.53974 11.3048 1.07227 14.9989 1.07227C16.828 1.07227 18.6392 1.43254 20.3291 2.13252C22.019 2.83249 23.5545 3.85846 24.8479 5.15185C26.1413 6.44524 27.1672 7.98071 27.8672 9.6706C28.5672 11.3605 28.9275 13.1717 28.9275 15.0008V17.1437C28.9275 17.4279 28.8146 17.7004 28.6136 17.9013C28.4127 18.1022 28.1402 18.2151 27.856 18.2151H25.7132M14.9989 19.2866V21.4294" stroke="#364E79" stroke-width="2" stroke-linecap="round" stroke-linejoin="round"/>
</g>
</g>
<defs>
<clipPath id="clip0_420_5745">
<rect width="30" height="30" fill="white"/>
</clipPath>
</defs>
</svg>
