<svg width="24" height="24" viewBox="0 0 24 24" fill="none" xmlns="http://www.w3.org/2000/svg">
<g id="streamline:image-picture-flower-photos-photo-picture-camera-photography-pictures-flower" clip-path="url(#clip0_1174_8253)">
<g id="Group">
<path id="Vector" d="M2.5692 23.1426L21.4263 23.1426C22.3731 23.1426 23.1406 22.3751 23.1406 21.4283L23.1406 2.57115C23.1406 1.62438 22.3731 0.856863 21.4263 0.856863L2.5692 0.856863C1.62242 0.856863 0.85491 1.62438 0.85491 2.57115L0.85491 21.4283C0.85491 22.3751 1.62242 23.1426 2.5692 23.1426Z" stroke="#008081" stroke-linecap="round" stroke-linejoin="round"/>
<path id="Vector_2" d="M11.9983 16.2853C13.3623 16.2853 14.6704 15.7435 15.6349 14.779C16.5994 13.8145 17.1412 12.5064 17.1412 11.1424V7.38816C17.1415 7.24249 17.1046 7.09915 17.0342 6.97168C16.9637 6.8442 16.8619 6.73679 16.7383 6.65958C16.6148 6.58238 16.4736 6.53793 16.3282 6.53043C16.1827 6.52294 16.0377 6.55263 15.9069 6.61673L11.9983 8.57101L8.08976 6.61673C7.95895 6.55263 7.81396 6.52294 7.66849 6.53043C7.52302 6.53793 7.38185 6.58238 7.25833 6.65958C7.1348 6.73679 7.03299 6.8442 6.9625 6.97168C6.89202 7.09915 6.85518 7.24249 6.85547 7.38816V11.1424C6.85547 12.5064 7.39731 13.8145 8.36178 14.779C9.32625 15.7435 10.6344 16.2853 11.9983 16.2853ZM11.9983 16.2853V23.1424M11.9983 23.1424L16.284 18.8567M11.9983 23.1424L7.71261 18.8567" stroke="#008081" stroke-linecap="round" stroke-linejoin="round"/>
</g>
</g>
<defs>
<clipPath id="clip0_1174_8253">
<rect width="24" height="24" fill="white"/>
</clipPath>
</defs>
</svg>
