<svg width="24" height="24" viewBox="0 0 24 24" fill="none" xmlns="http://www.w3.org/2000/svg">
<g id="streamline:image-camera-tripod-tripod-photos-picture-camera-photography-photo-pictures">
<g id="Group">
<path id="Vector" d="M11.9994 14.5723V23.1437M11.9994 14.5723L4.28516 23.1437M11.9994 14.5723L19.7137 23.1437" stroke="#F5772D" stroke-linecap="round" stroke-linejoin="round"/>
<path id="Vector_2" d="M19.7132 0.857422H4.2846C3.33782 0.857422 2.57031 1.62493 2.57031 2.57171V12.8574C2.57031 13.8042 3.33782 14.5717 4.2846 14.5717H19.7132C20.6599 14.5717 21.4275 13.8042 21.4275 12.8574V2.57171C21.4275 1.62493 20.6599 0.857422 19.7132 0.857422Z" stroke="#F5772D" stroke-linecap="round" stroke-linejoin="round"/>
<path id="Vector_3" d="M11.9972 10.2854C13.4174 10.2854 14.5686 9.13417 14.5686 7.71401C14.5686 6.29385 13.4174 5.14258 11.9972 5.14258C10.577 5.14258 9.42578 6.29385 9.42578 7.71401C9.42578 9.13417 10.577 10.2854 11.9972 10.2854Z" stroke="#F5772D" stroke-linecap="round" stroke-linejoin="round"/>
</g>
</g>
</svg>
