<svg width="22" height="22" viewBox="0 0 22 22" fill="none" xmlns="http://www.w3.org/2000/svg">
<path d="M13.64 20.4409H8.48059C3.81136 20.4409 1.81641 18.4459 1.81641 13.7767V8.61731C1.81641 3.94808 3.81136 1.95312 8.48059 1.95312H13.64C18.3092 1.95312 20.3041 3.94808 20.3041 8.61731V13.7767C20.3041 18.4459 18.3092 20.4409 13.64 20.4409ZM8.48059 3.24297C4.51648 3.24297 3.10625 4.65319 3.10625 8.61731V13.7767C3.10625 17.7408 4.51648 19.151 8.48059 19.151H13.64C17.6041 19.151 19.0143 17.7408 19.0143 13.7767V8.61731C19.0143 4.65319 17.6041 3.24297 13.64 3.24297H8.48059Z" fill="#A0A3BD"/>
<path d="M11.059 20.4409C10.7064 20.4409 10.4141 20.1485 10.4141 19.7959V2.59805C10.4141 2.24549 10.7064 1.95312 11.059 1.95312C11.4115 1.95312 11.7039 2.24549 11.7039 2.59805V19.7959C11.7039 20.1485 11.4115 20.4409 11.059 20.4409Z" fill="#A0A3BD"/>
<path d="M19.6592 11.8426H2.46133C2.10877 11.8426 1.81641 11.5502 1.81641 11.1977C1.81641 10.8451 2.10877 10.5527 2.46133 10.5527H19.6592C20.0118 10.5527 20.3041 10.8451 20.3041 11.1977C20.3041 11.5502 20.0118 11.8426 19.6592 11.8426Z" fill="#A0A3BD"/>
</svg>
