<svg width="22" height="22" viewBox="0 0 22 22" fill="none" xmlns="http://www.w3.org/2000/svg">
<g id="vuesax/outline/tag-user">
<g id="tag-user">
<path id="Vector" d="M11.1965 20.4409C10.5945 20.4409 9.98402 20.2087 9.52828 19.753L8.05784 18.2997C7.69668 17.9386 7.19797 17.7408 6.69063 17.7408H6.03711C4.25712 17.7408 2.8125 16.3048 2.8125 14.542V5.15193C2.8125 3.38915 4.25712 1.95312 6.03711 1.95312H16.3558C18.1358 1.95312 19.5805 3.38915 19.5805 5.15193V14.5334C19.5805 16.2962 18.1358 17.7322 16.3558 17.7322H15.7023C15.195 17.7322 14.6963 17.9386 14.3351 18.2911L12.8647 19.7444C12.4089 20.2087 11.7984 20.4409 11.1965 20.4409ZM6.03711 3.24297C4.97084 3.24297 4.10234 4.10286 4.10234 5.15193V14.5334C4.10234 15.5911 4.97084 16.4424 6.03711 16.4424H6.69063C7.54193 16.4424 8.3674 16.7863 8.96933 17.3796L10.4398 18.8329C10.8611 19.2456 11.5404 19.2456 11.9618 18.8329L13.4322 17.3796C14.0341 16.7863 14.8596 16.4424 15.7109 16.4424H16.3558C17.4221 16.4424 18.2906 15.5825 18.2906 14.5334V5.15193C18.2906 4.09426 17.4221 3.24297 16.3558 3.24297H6.03711Z" fill="white"/>
<path id="Vector_2" d="M11.2569 9.2196C11.2397 9.2196 11.2139 9.2196 11.1967 9.2196C11.1709 9.2196 11.1366 9.2196 11.1108 9.2196C9.85531 9.17661 8.875 8.16193 8.875 6.89789C8.875 5.61664 9.91548 4.57617 11.1967 4.57617C12.478 4.57617 13.5185 5.61664 13.5185 6.89789C13.5099 8.16193 12.5296 9.17661 11.2741 9.2196C11.2741 9.2196 11.2655 9.2196 11.2569 9.2196ZM11.1967 5.86601C10.6292 5.86601 10.1648 6.33036 10.1648 6.89789C10.1648 7.45682 10.6034 7.91256 11.1537 7.92976C11.1537 7.92116 11.2053 7.92116 11.2655 7.92976C11.8073 7.89537 12.2286 7.44822 12.2286 6.89789C12.2286 6.33036 11.7643 5.86601 11.1967 5.86601Z" fill="white"/>
<path id="Vector_3" d="M11.1977 15.2392C10.2174 15.2392 9.23711 14.9812 8.4718 14.4739C7.74949 13.9923 7.32812 13.2958 7.32812 12.5563C7.32812 11.8168 7.74089 11.1117 8.4718 10.6301C10.0024 9.61547 12.3929 9.61547 13.9149 10.6301C14.6372 11.1117 15.0586 11.8168 15.0586 12.5477C15.0586 13.2872 14.6458 13.9837 13.9149 14.4739C13.1582 14.9898 12.1779 15.2392 11.1977 15.2392ZM9.18547 11.705C8.81572 11.9544 8.61797 12.2553 8.61797 12.5563C8.61797 12.8573 8.82432 13.1582 9.18547 13.4076C10.2775 14.1385 12.1092 14.1385 13.2012 13.4076C13.571 13.1582 13.7773 12.8573 13.7687 12.5563C13.7687 12.2553 13.5624 11.9544 13.2012 11.705C12.1178 10.9741 10.2775 10.9741 9.18547 11.705Z" fill="white"/>
</g>
</g>
</svg>
