<svg width="30" height="30" viewBox="0 0 30 30" fill="none" xmlns="http://www.w3.org/2000/svg">
<g id="uiw:question-circle-o" clip-path="url(#clip0_423_5845)">
<path id="Vector" d="M15 0C23.2845 0 30 6.7155 30 15C30 23.2845 23.2845 30 15 30C6.7155 30 0 23.2845 0 15C0 6.7155 6.7155 0 15 0ZM15 2.0925C11.5767 2.0925 8.29365 3.45239 5.87302 5.87302C3.45239 8.29365 2.0925 11.5767 2.0925 15C2.0925 18.4233 3.45239 21.7064 5.87302 24.127C8.29365 26.5476 11.5767 27.9075 15 27.9075C18.4233 27.9075 21.7064 26.5476 24.127 24.127C26.5476 21.7064 27.9075 18.4233 27.9075 15C27.9075 11.5767 26.5476 8.29365 24.127 5.87302C21.7064 3.45239 18.4233 2.0925 15 2.0925ZM15 20.454C15.183 20.4479 15.3653 20.4787 15.5361 20.5446C15.7069 20.6104 15.8627 20.7099 15.9943 20.8372C16.1259 20.9645 16.2305 21.1169 16.302 21.2855C16.3734 21.454 16.4102 21.6352 16.4102 21.8183C16.4102 22.0013 16.3734 22.1825 16.302 22.351C16.2305 22.5196 16.1259 22.672 15.9943 22.7993C15.8627 22.9266 15.7069 23.0261 15.5361 23.0919C15.3653 23.1578 15.183 23.1886 15 23.1825C14.646 23.1708 14.3104 23.0219 14.0642 22.7673C13.8179 22.5128 13.6802 22.1724 13.6802 21.8183C13.6802 21.4641 13.8179 21.1237 14.0642 20.8692C14.3104 20.6146 14.646 20.4657 15 20.454ZM19.02 7.995C20.109 9.09 20.46 10.341 20.277 11.649C20.133 12.6855 19.497 13.8015 18.651 14.538C17.601 15.447 17.343 15.672 17.145 15.8715L17.055 15.9645L16.9035 16.1295C16.5428 16.5265 16.2681 16.9938 16.0965 17.502C15.987 17.808 15.8925 18.264 15.822 18.8595C15.7822 19.1217 15.6421 19.3582 15.4313 19.5191C15.2205 19.68 14.9554 19.7528 14.692 19.722C14.4286 19.6913 14.1874 19.5595 14.0193 19.3543C13.8512 19.1492 13.7694 18.8868 13.791 18.6225C13.878 17.883 14.001 17.283 14.1735 16.8075C14.4373 16.0409 14.856 15.3368 15.4035 14.739C15.6585 14.463 15.951 14.184 16.3245 13.8495C16.497 13.695 17.175 13.1085 17.3415 12.9645C17.811 12.5415 18.1785 11.8875 18.252 11.3655C18.351 10.659 18.18 10.0515 17.5695 9.438C16.9245 8.79 15.9105 8.478 15.132 8.58C13.995 8.727 13.5345 8.895 12.75 9.582C12.177 10.086 11.799 10.8315 11.625 11.8605C11.5711 12.1196 11.419 12.3478 11.2004 12.4971C10.9819 12.6463 10.714 12.7051 10.453 12.661C10.1921 12.617 9.95835 12.4735 9.80096 12.2607C9.64357 12.0479 9.57477 11.7824 9.609 11.52C9.855 10.05 10.4505 8.88 11.4 8.046C12.5385 7.0455 13.365 6.7455 14.868 6.5505C16.2555 6.3705 17.9085 6.8775 19.02 7.995Z" fill="#364E79"/>
</g>
<defs>
<clipPath id="clip0_423_5845">
<rect width="30" height="30" fill="white"/>
</clipPath>
</defs>
</svg>
