<svg width="20" height="20" viewBox="0 0 20 20" fill="none" xmlns="http://www.w3.org/2000/svg">
<g id="uiw:question-circle-o" clip-path="url(#clip0_425_5318)">
<path id="Vector" d="M10 0C15.523 0 20 4.477 20 10C20 15.523 15.523 20 10 20C4.477 20 0 15.523 0 10C0 4.477 4.477 0 10 0ZM10 1.395C7.71781 1.395 5.5291 2.3016 3.91535 3.91535C2.3016 5.5291 1.395 7.71781 1.395 10C1.395 12.2822 2.3016 14.4709 3.91535 16.0847C5.5291 17.6984 7.71781 18.605 10 18.605C12.2822 18.605 14.4709 17.6984 16.0847 16.0847C17.6984 14.4709 18.605 12.2822 18.605 10C18.605 7.71781 17.6984 5.5291 16.0847 3.91535C14.4709 2.3016 12.2822 1.395 10 1.395ZM10 13.636C10.122 13.632 10.2435 13.6525 10.3574 13.6964C10.4713 13.7403 10.5752 13.8066 10.6629 13.8915C10.7506 13.9763 10.8203 14.0779 10.868 14.1903C10.9156 14.3027 10.9402 14.4235 10.9402 14.5455C10.9402 14.6675 10.9156 14.7883 10.868 14.9007C10.8203 15.0131 10.7506 15.1147 10.6629 15.1995C10.5752 15.2844 10.4713 15.3507 10.3574 15.3946C10.2435 15.4385 10.122 15.459 10 15.455C9.76401 15.4472 9.54029 15.3479 9.37612 15.1782C9.21194 15.0085 9.12016 14.7816 9.12016 14.5455C9.12016 14.3094 9.21194 14.0825 9.37612 13.9128C9.54029 13.7431 9.76401 13.6438 10 13.636ZM12.68 5.33C13.406 6.06 13.64 6.894 13.518 7.766C13.422 8.457 12.998 9.201 12.434 9.692C11.734 10.298 11.562 10.448 11.43 10.581L11.37 10.643L11.269 10.753C11.0285 11.0177 10.8454 11.3292 10.731 11.668C10.658 11.872 10.595 12.176 10.548 12.573C10.5215 12.7478 10.4281 12.9055 10.2875 13.0127C10.147 13.12 9.97029 13.1685 9.79468 13.148C9.61907 13.1275 9.45828 13.0396 9.34622 12.9029C9.23416 12.7661 9.17958 12.5912 9.194 12.415C9.252 11.922 9.334 11.522 9.449 11.205C9.62486 10.694 9.90398 10.2246 10.269 9.826C10.439 9.642 10.634 9.456 10.883 9.233C10.998 9.13 11.45 8.739 11.561 8.643C11.874 8.361 12.119 7.925 12.168 7.577C12.234 7.106 12.12 6.701 11.713 6.292C11.283 5.86 10.607 5.652 10.088 5.72C9.33 5.818 9.023 5.93 8.5 6.388C8.118 6.724 7.866 7.221 7.75 7.907C7.7141 8.07975 7.61264 8.23185 7.46695 8.33137C7.32126 8.43089 7.14266 8.47007 6.96869 8.44069C6.79472 8.4113 6.6389 8.31564 6.53398 8.17379C6.42905 8.03195 6.38318 7.85496 6.406 7.68C6.57 6.7 6.967 5.92 7.6 5.364C8.359 4.697 8.91 4.497 9.912 4.367C10.837 4.247 11.939 4.585 12.68 5.33Z" fill="#8C90B6"/>
</g>
<defs>
<clipPath id="clip0_425_5318">
<rect width="20" height="20" fill="white"/>
</clipPath>
</defs>
</svg>
