<svg width="37" height="37" viewBox="0 0 37 37" fill="none" xmlns="http://www.w3.org/2000/svg">
<g id="teenyicons:audio-document-outline" clip-path="url(#clip0_633_6519)">
<path id="Vector" d="M33.2236 8.56323H34.4469V8.05677L34.0897 7.69712L33.2236 8.56323ZM25.8837 1.22332L26.7498 0.357209L26.3901 0H25.8837V1.22332ZM18.5438 11.0099L19.5224 10.2759C19.3684 10.0705 19.1536 9.91875 18.9085 9.84219C18.6634 9.76564 18.4005 9.76813 18.1569 9.84932C17.9133 9.93052 17.7015 10.0863 17.5514 10.2946C17.4012 10.5029 17.3204 10.7531 17.3204 11.0099H18.5438ZM30.7769 34.2529H6.31058V36.6996H30.7769V34.2529ZM5.08726 33.0296V3.66996H2.64062V33.0296H5.08726ZM32.0003 8.56323V33.0296H34.4469V8.56323H32.0003ZM6.31058 2.44664H25.8837V0H6.31058V2.44664ZM25.0176 2.08943L32.3575 9.42934L34.0897 7.69712L26.7498 0.357209L25.0176 2.08943ZM6.31058 34.2529C5.98614 34.2529 5.67498 34.124 5.44556 33.8946C5.21615 33.6652 5.08726 33.354 5.08726 33.0296H2.64062C2.64063 34.0029 3.02728 34.9364 3.71553 35.6246C4.40378 36.3129 5.33725 36.6996 6.31058 36.6996V34.2529ZM30.7769 36.6996C31.7503 36.6996 32.6838 36.3129 33.372 35.6246C34.0603 34.9364 34.4469 34.0029 34.4469 33.0296H32.0003C32.0003 33.354 31.8714 33.6652 31.642 33.8946C31.4125 34.124 31.1014 34.2529 30.7769 34.2529V36.6996ZM5.08726 3.66996C5.08726 3.34551 5.21615 3.03435 5.44556 2.80494C5.67498 2.57552 5.98614 2.44664 6.31058 2.44664V0C5.33725 0 4.40378 0.386655 3.71553 1.0749C3.02728 1.76315 2.64063 2.69662 2.64062 3.66996H5.08726ZM14.8738 26.913C14.2249 26.913 13.6026 26.6552 13.1438 26.1964C12.6849 25.7376 12.4272 25.1153 12.4272 24.4664H9.98054C9.98054 25.7641 10.4961 27.0088 11.4137 27.9264C12.3314 28.8441 13.576 29.3596 14.8738 29.3596V26.913ZM17.3204 24.4664C17.3204 25.1153 17.0627 25.7376 16.6038 26.1964C16.145 26.6552 15.5227 26.913 14.8738 26.913V29.3596C16.1716 29.3596 17.4162 28.8441 18.3339 27.9264C19.2515 27.0088 19.7671 25.7641 19.7671 24.4664H17.3204ZM14.8738 22.0197C15.5227 22.0197 16.145 22.2775 16.6038 22.7363C17.0627 23.1952 17.3204 23.8175 17.3204 24.4664H19.7671C19.7671 23.1686 19.2515 21.924 18.3339 21.0063C17.4162 20.0886 16.1716 19.5731 14.8738 19.5731V22.0197ZM14.8738 19.5731C13.576 19.5731 12.3314 20.0886 11.4137 21.0063C10.4961 21.924 9.98054 23.1686 9.98054 24.4664H12.4272C12.4272 23.8175 12.6849 23.1952 13.1438 22.7363C13.6026 22.2775 14.2249 22.0197 14.8738 22.0197V19.5731ZM17.3204 15.9031V24.4664H19.7671V15.9031H17.3204ZM19.7671 17.1265V11.0099H17.3204V17.1265H19.7671ZM17.5651 11.7439L18.2991 12.7225L20.2564 11.2545L19.5224 10.2759L17.5651 11.7439ZM18.2991 12.7225C19.3246 14.0899 20.6545 15.1997 22.1832 15.9641C23.712 16.7285 25.3978 17.1265 27.107 17.1265V14.6798C25.7776 14.6798 24.4665 14.3703 23.2774 13.7758C22.0884 13.1813 21.0541 12.318 20.2564 11.2545L18.2991 12.7225Z" fill="#A0A3BD"/>
</g>
<defs>
<clipPath id="clip0_633_6519">
<rect width="36.6996" height="36.6996" fill="white" transform="translate(0.195312)"/>
</clipPath>
</defs>
</svg>
