<svg width="23" height="17" viewBox="0 0 23 17" fill="none" xmlns="http://www.w3.org/2000/svg">
<path id="Vector" d="M12.2227 13.3477L13.2773 14.4023L11.25 16.4414L9.22266 14.4023L10.2773 13.3477L11.25 14.3203L12.2227 13.3477ZM10.2773 3.16406L9.22266 2.09766L11.25 0.0703125L13.2773 2.09766L12.2227 3.16406L11.25 2.19141L10.2773 3.16406ZM3.15234 7.27734L2.19141 8.25L3.15234 9.22266L2.09766 10.2773L0.0703125 8.25L2.09766 6.22266L3.15234 7.27734ZM22.4297 8.25L20.4023 10.2773L19.3477 9.22266L20.3203 8.25L19.3477 7.27734L20.4023 6.22266L22.4297 8.25ZM4.5 4.5H18V6H4.5V4.5ZM4.5 7.5H18V9H4.5V7.5ZM4.5 10.5H18V12H4.5V10.5Z" fill="#203864"/>
</svg>
