<svg width="41" height="41" viewBox="0 0 41 41" fill="none" xmlns="http://www.w3.org/2000/svg">
<g id="bi:file-pdf" clip-path="url(#clip0_415_5206)">
<g id="Group">
<path id="Vector" d="M10.6263 0.724609C9.32369 0.724609 8.07444 1.24206 7.15337 2.16314C6.2323 3.08421 5.71484 4.33345 5.71484 5.63605V35.1047C5.71484 36.4073 6.2323 37.6565 7.15337 38.5776C8.07444 39.4987 9.32369 40.0161 10.6263 40.0161H30.272C31.5746 40.0161 32.8239 39.4987 33.745 38.5776C34.666 37.6565 35.1835 36.4073 35.1835 35.1047V5.63605C35.1835 4.33345 34.666 3.08421 33.745 2.16314C32.8239 1.24206 31.5746 0.724609 30.272 0.724609L10.6263 0.724609ZM10.6263 3.18033H30.272C30.9233 3.18033 31.548 3.43906 32.0085 3.89959C32.469 4.36013 32.7278 4.98475 32.7278 5.63605V35.1047C32.7278 35.756 32.469 36.3806 32.0085 36.8411C31.548 37.3017 30.9233 37.5604 30.272 37.5604H10.6263C9.97499 37.5604 9.35036 37.3017 8.88983 36.8411C8.42929 36.3806 8.17056 35.756 8.17056 35.1047V5.63605C8.17056 4.98475 8.42929 4.36013 8.88983 3.89959C9.35036 3.43906 9.97499 3.18033 10.6263 3.18033Z" fill="#A0A3BD"/>
<path id="Vector_2" d="M12.1082 30.4078C11.6296 30.2164 11.2439 29.8466 11.0326 29.3764C10.5537 28.4236 10.7133 27.4708 11.229 26.6702C11.7153 25.9163 12.5208 25.2754 13.4318 24.7376C14.5859 24.0831 15.8057 23.5521 17.0712 23.1536C18.0539 21.387 18.925 19.5604 19.6792 17.6848C19.2282 16.6602 18.8747 15.5954 18.6232 14.5046C18.412 13.5223 18.331 12.5498 18.5102 11.7149C18.6944 10.8456 19.1831 10.0647 20.1065 9.69384C20.578 9.50475 21.0888 9.39916 21.5848 9.50475C21.8343 9.55787 22.0689 9.66587 22.2715 9.8209C22.4741 9.97594 22.6397 10.1741 22.7562 10.4011C22.9723 10.8038 23.0509 11.2753 23.0681 11.7223C23.0853 12.1815 23.0386 12.6923 22.9526 13.2301C22.7464 14.4825 22.2896 16.0149 21.6757 17.6356C22.3532 19.0846 23.1586 20.4702 24.0823 21.776C25.1753 21.6897 26.2747 21.7309 27.3582 21.8988C28.2521 22.0584 29.1607 22.3776 29.7157 23.0407C30.0104 23.3943 30.1896 23.8265 30.2068 24.3127C30.224 24.7842 30.0914 25.2508 29.868 25.6953C29.6744 26.1072 29.3742 26.4599 28.9986 26.7169C28.6273 26.9591 28.189 27.0777 27.7462 27.0558C26.9334 27.0214 26.1402 26.5745 25.455 26.0317C24.622 25.3428 23.8713 24.56 23.2179 23.6988C21.5572 23.8872 19.9162 24.2208 18.3138 24.6958C17.5791 25.9973 16.7407 27.2374 15.8065 28.404C15.0943 29.2635 14.3134 30.0125 13.5325 30.3366C13.0838 30.5396 12.5749 30.565 12.1082 30.4078ZM15.4946 25.7395C15.087 25.9261 14.7088 26.1226 14.3675 26.324C13.562 26.8004 13.0389 27.2645 12.7786 27.6673C12.5478 28.0233 12.5429 28.2812 12.6804 28.5538C12.7049 28.6078 12.7295 28.6422 12.7442 28.6618C12.7735 28.654 12.8022 28.6441 12.8302 28.6324C13.1666 28.4948 13.702 28.0553 14.3896 27.2277C14.7806 26.7489 15.1494 26.2523 15.4946 25.7395ZM19.522 22.4734C20.342 22.2819 21.1694 22.1237 22.0023 21.9995C21.5549 21.3153 21.1371 20.6123 20.7499 19.8924C20.3648 20.7633 19.9553 21.6231 19.522 22.471V22.4734ZM25.5287 23.5785C25.8971 23.9763 26.2556 24.3152 26.5969 24.5853C27.1863 25.0519 27.5964 25.2066 27.8199 25.214C27.8797 25.2218 27.9404 25.2088 27.9918 25.1772C28.0939 25.0965 28.1735 24.9907 28.2226 24.8702C28.3099 24.7206 28.3596 24.5521 28.3675 24.379C28.3661 24.3214 28.3433 24.2662 28.3037 24.2243C28.176 24.0721 27.8125 23.8511 27.0316 23.7111C26.5349 23.6281 26.0323 23.5845 25.5287 23.5809V23.5785ZM20.6418 14.9687C20.8485 14.3021 21.0125 13.6229 21.133 12.9354C21.2091 12.4737 21.2386 12.0931 21.2263 11.7935C21.227 11.6282 21.2004 11.4639 21.1477 11.3073C21.0248 11.3225 20.9049 11.3556 20.7916 11.4055C20.578 11.4914 20.4036 11.6658 20.3103 12.1004C20.2121 12.5719 20.2366 13.2522 20.4233 14.119C20.4822 14.3916 20.5559 14.6765 20.6443 14.9687H20.6418Z" fill="#A0A3BD"/>
</g>
</g>
<defs>
<clipPath id="clip0_415_5206">
<rect width="39.2915" height="39.2915" fill="white" transform="translate(0.800781 0.722656)"/>
</clipPath>
</defs>
</svg>
