<svg width="20" height="20" viewBox="0 0 20 20" fill="none" xmlns="http://www.w3.org/2000/svg">
<g id="iwwa:delete">
<path id="Vector" d="M10.7302 9.99698L16.1974 4.52443C16.2939 4.4275 16.348 4.2963 16.3479 4.15956C16.3478 4.02282 16.2935 3.89169 16.1969 3.79489C16.0036 3.60255 15.6631 3.60158 15.4679 3.79586L10.0021 9.2684L4.53443 3.7944C4.34015 3.60255 3.99966 3.60352 3.80635 3.79538C3.75836 3.84317 3.72038 3.90004 3.69461 3.96266C3.66884 4.02529 3.65581 4.09243 3.65626 4.16015C3.65626 4.29809 3.70969 4.42729 3.80635 4.52298L9.27355 9.99649L3.80683 15.4705C3.71036 15.5676 3.65634 15.6989 3.65661 15.8358C3.65689 15.9727 3.71143 16.1038 3.80829 16.2005C3.90203 16.2933 4.03463 16.3467 4.1716 16.3467H4.17452C4.31198 16.3462 4.44458 16.2923 4.53638 16.1986L10.0021 10.726L15.4698 16.2C15.5665 16.2962 15.6957 16.3496 15.8326 16.3496C15.9004 16.3498 15.9675 16.3366 16.0301 16.3108C16.0927 16.285 16.1496 16.247 16.1975 16.1991C16.2454 16.1512 16.2833 16.0943 16.3091 16.0317C16.335 15.9691 16.3482 15.902 16.348 15.8343C16.348 15.6968 16.2945 15.5671 16.1974 15.4715L10.7302 9.99698Z" fill="#9DA8B5"/>
</g>
</svg>
