<svg width="30" height="30" viewBox="0 0 30 30" fill="none" xmlns="http://www.w3.org/2000/svg">
<g id="economy-educative-book-svgrepo-com" clip-path="url(#clip0_653_8103)">
<g id="Group">
<g id="Group_2">
<path id="Vector" d="M28.3864 6.93932V5.10867L28.1212 5.00424C28.0316 4.9682 25.8793 4.13281 23.0081 4.13281C19.9327 4.13281 17.2852 5.06985 15.1292 6.91899C12.9742 5.06985 10.3248 4.13281 7.2494 4.13281C4.37821 4.13281 2.22598 4.9682 2.13634 5.00332L1.87112 5.10867V6.8044C1.00154 6.96704 0.460938 7.25813 0.460938 7.73312C0.460938 10.206 0.460938 25.2153 0.460938 25.2153H13.3356C13.781 25.6145 14.4325 25.865 15.1607 25.865C15.8888 25.865 16.5403 25.6145 16.9858 25.2153H29.5379C29.5379 25.2153 29.5379 8.60085 29.5379 7.73312C29.5369 7.34685 29.0989 7.09457 28.3864 6.93932ZM14.9897 23.8366C13.9205 23.3958 10.2389 21.9967 6.55263 21.9967C5.09624 21.9967 3.80527 22.2194 2.70559 22.6611V5.68623C3.34691 5.47276 5.09624 4.96635 7.2494 4.96635C10.0809 4.96635 12.5131 5.823 14.4999 7.49285V17.6247L14.9906 17.0851L14.9897 23.8366ZM27.552 22.6648C26.371 22.1898 25.0162 21.9514 23.5127 21.9514C19.8283 21.9514 16.3204 23.3634 15.266 23.8273V17.0841L15.7558 17.6238V7.49193C17.7426 5.82115 20.1758 4.96543 23.0072 4.96543C25.153 4.96543 26.9079 5.47276 27.5501 5.68531V22.6648H27.552Z" fill="#008081"/>
<path id="Vector_2" d="M4.35547 7.91874L4.5292 8.57208C8.87711 7.41972 12.7888 9.55348 12.8277 9.57566L13.1566 8.98423C12.9884 8.8909 8.97229 6.69522 4.35547 7.91874Z" fill="#008081"/>
<path id="Vector_3" d="M4.35547 9.83105L4.5292 10.4835C8.87711 9.33019 12.7888 11.4649 12.8277 11.4852L13.1566 10.8965C12.9884 10.8014 8.97229 8.60754 4.35547 9.83105Z" fill="#008081"/>
<path id="Vector_4" d="M4.35547 11.6265L4.5292 12.2799C8.87711 11.1284 12.7888 13.2622 12.8277 13.2834L13.1566 12.692C12.9884 12.5996 8.97229 10.4058 4.35547 11.6265Z" fill="#008081"/>
<path id="Vector_5" d="M4.35547 13.5989L4.5292 14.2513C8.87711 13.098 12.7888 15.2327 12.8277 15.2549L13.1566 14.6644C12.9884 14.5701 8.97229 12.3745 4.35547 13.5989Z" fill="#008081"/>
<path id="Vector_6" d="M4.35547 15.4238L4.5292 16.0771C8.87711 14.9238 12.7888 17.0585 12.8277 17.0807L13.1566 16.4892C12.9884 16.3968 8.97229 14.2021 4.35547 15.4238Z" fill="#008081"/>
<path id="Vector_7" d="M4.35547 17.3002L4.5292 17.9517C8.87711 16.7993 12.7888 18.934 12.8277 18.9552L13.1566 18.3657C12.9884 18.2705 8.97229 16.0757 4.35547 17.3002Z" fill="#008081"/>
<path id="Vector_8" d="M4.35547 19.1781L4.5292 19.8315C8.87711 18.6782 12.7888 20.8129 12.8277 20.8341L13.1566 20.2445C12.9884 20.1503 8.97229 17.9555 4.35547 19.1781Z" fill="#008081"/>
<path id="Vector_9" d="M21.6634 10.5811V9.8418H21.182V10.5811C20.8927 10.5811 20.5989 10.6236 20.3041 10.7068C20.0065 10.7899 19.7413 10.9184 19.5029 11.0949C19.2663 11.2714 19.0713 11.4959 18.9198 11.7704C18.7701 12.0439 18.6943 12.3701 18.6943 12.7453C18.6943 13.0115 18.734 13.2342 18.8135 13.4172C18.893 13.5992 19.0085 13.7563 19.1563 13.8884C19.3042 14.0224 19.4835 14.1361 19.6923 14.2313C19.903 14.3274 20.135 14.417 20.3873 14.5039C20.5277 14.5529 20.6654 14.5954 20.7985 14.6287C20.9325 14.6628 21.0582 14.698 21.182 14.7349V16.0398C21.0046 16.0259 20.8641 15.988 20.7661 15.9242C20.6682 15.8596 20.5924 15.7819 20.5388 15.6914C20.4861 15.6027 20.4529 15.5093 20.4381 15.4086C20.4214 15.3125 20.415 15.2219 20.415 15.1415H18.4355C18.4485 15.4437 18.5067 15.7385 18.6111 16.0204C18.7146 16.3041 18.8782 16.5536 19.0954 16.7735C19.3144 16.9925 19.5953 17.169 19.9372 17.3002C20.2801 17.4324 20.695 17.4989 21.182 17.4989V18.4138H21.6634V17.4989C22.1504 17.4989 22.5663 17.4342 22.9082 17.3058C23.2501 17.1755 23.5292 17.0101 23.7445 16.8049C23.9608 16.6016 24.116 16.3734 24.2121 16.122C24.3082 15.8697 24.3544 15.6156 24.3544 15.3642C24.3544 15.1046 24.3276 14.8634 24.2713 14.6416C24.2149 14.4207 24.0957 14.2147 23.9053 14.028C23.7168 13.8395 23.4451 13.6657 23.0903 13.5077C22.7363 13.3515 22.2604 13.2083 21.6625 13.078V12.043C21.778 12.067 21.8769 12.0975 21.9582 12.1271C22.0377 12.1576 22.1033 12.1973 22.1569 12.2472C22.2087 12.2971 22.2493 12.3618 22.2761 12.4404C22.3048 12.5217 22.3242 12.6197 22.3362 12.7379H24.1022C24.1022 12.3618 24.0375 12.0365 23.9035 11.7649C23.7695 11.4941 23.592 11.2714 23.3666 11.094C23.142 10.9193 22.8823 10.789 22.5838 10.7058C22.2937 10.6227 21.985 10.5811 21.6634 10.5811ZM21.1829 12.968C20.7449 12.8812 20.5259 12.7148 20.5259 12.4699C20.5259 12.2842 20.5943 12.1668 20.7292 12.1169C20.865 12.067 21.0175 12.043 21.1829 12.043V12.968ZM22.229 15.1092C22.3639 15.1933 22.4314 15.3162 22.4314 15.4751C22.4314 15.6544 22.3574 15.7893 22.2105 15.879C22.0627 15.9686 21.8806 16.0222 21.6644 16.0416V14.8671C21.9046 14.9447 22.0922 15.026 22.229 15.1092Z" fill="#008081"/>
</g>
</g>
</g>
<defs>
<clipPath id="clip0_653_8103">
<rect width="29.0769" height="29.0769" fill="white" transform="translate(0.460938 0.460938)"/>
</clipPath>
</defs>
</svg>
