<svg width="20" height="20" viewBox="0 0 20 20" fill="none" xmlns="http://www.w3.org/2000/svg">
<g id="ic:baseline-edit">
<path id="Vector" d="M2.71875 14.2486V17.2843H5.75446L14.7078 8.33101L11.6721 5.2953L2.71875 14.2486ZM17.0554 5.98339C17.1305 5.9085 17.19 5.81954 17.2306 5.72161C17.2712 5.62368 17.2922 5.5187 17.2922 5.41268C17.2922 5.30666 17.2712 5.20167 17.2306 5.10374C17.19 5.00581 17.1305 4.91686 17.0554 4.84196L15.1611 2.94768C15.0862 2.87263 14.9973 2.81309 14.8994 2.77247C14.8014 2.73185 14.6964 2.71094 14.5904 2.71094C14.4844 2.71094 14.3794 2.73185 14.2815 2.77247C14.1836 2.81309 14.0946 2.87263 14.0197 2.94768L12.5383 4.42911L15.574 7.46482L17.0554 5.98339Z" fill="#9DA8B5"/>
</g>
</svg>
