<svg width="30" height="30" viewBox="0 0 30 30" fill="none" xmlns="http://www.w3.org/2000/svg">
<g id="education-learning-28-svgrepo-com">
<path id="Vector" d="M9.1253 25.5997H20.8681C21.8077 25.5997 22.5722 24.8352 22.5722 23.8956V21.2805C22.5722 18.3595 20.3587 15.9679 17.4958 15.7093V13.308C18.8836 12.4526 19.7432 10.9352 19.7432 9.29295V7.42657H20.1491C20.3163 7.42657 20.452 7.29088 20.452 7.12369V5.05499H21.9664V6.64513C21.9664 6.81232 22.1021 6.94802 22.2693 6.94802C22.4365 6.94802 22.5722 6.81232 22.5722 6.64513V4.7521C22.5722 4.58491 22.4365 4.44922 22.2693 4.44922H20.1491H9.85101H7.73082C7.56363 4.44922 7.42793 4.58491 7.42793 4.7521C7.42793 4.9193 7.56363 5.05499 7.73082 5.05499H9.54813V7.12369C9.54813 7.29088 9.68382 7.42657 9.85101 7.42657H10.2569V9.29234C10.2569 10.9346 11.1159 12.4526 12.4982 13.308V15.7099C9.6299 15.974 7.42188 18.3637 7.42188 21.2811V23.8962C7.42188 24.8352 8.18575 25.5997 9.1253 25.5997ZM16.0492 15.6772H13.9509H13.104V13.6315C13.6976 13.8932 14.3428 14.0355 15 14.0355C15.6549 14.0355 16.2982 13.8932 16.89 13.6315V15.6772H16.0492ZM15.6652 16.2829L15 19.0525L14.3349 16.2829H15.6652ZM10.1539 5.05499H19.8462V6.82081H19.4403H10.5598H10.1539V5.05499ZM10.8626 9.29234V7.42657H19.1375V9.29234C19.1375 10.7789 18.3354 12.154 17.0415 12.8827C15.8027 13.6006 14.1871 13.5982 12.9507 12.8815C11.6629 12.1528 10.8626 10.7777 10.8626 9.29234ZM8.02764 21.2805C8.02764 18.5909 10.1297 16.398 12.8259 16.2878C12.8908 16.2823 12.9598 16.2823 13.0252 16.2829H13.7122L14.7056 20.4203C14.7384 20.5566 14.8601 20.6523 15 20.6523C15.14 20.6523 15.2617 20.556 15.2945 20.4203L16.2879 16.2829H16.9688C17.036 16.2841 17.1039 16.2829 17.1808 16.2884C19.8644 16.398 21.9664 18.5903 21.9664 21.2805V23.8956C21.9664 24.5014 21.4739 24.9939 20.8681 24.9939H9.1253C8.51953 24.9939 8.02704 24.5014 8.02704 23.8956L8.02764 21.2805Z" fill="#203864"/>
<path id="Vector_2" d="M10.2033 20.9417H12.8002C12.9674 20.9417 13.1031 20.806 13.1031 20.6388C13.1031 20.4716 12.9674 20.3359 12.8002 20.3359H10.2033C10.0361 20.3359 9.90039 20.4716 9.90039 20.6388C9.90039 20.806 10.0361 20.9417 10.2033 20.9417Z" fill="#203864"/>
</g>
</svg>
