<svg width="22" height="22" viewBox="0 0 22 22" fill="none" xmlns="http://www.w3.org/2000/svg">
<g id="engineering-svgrepo-com (1)" clip-path="url(#clip0_475_6514)">
<g id="Group">
<g id="Group_2">
<path id="Vector" d="M20.2216 14.0624C19.1719 13.0127 17.649 12.572 16.2049 12.8884L14.789 11.4725L19.1144 7.147C19.1149 7.14655 21.0085 5.25294 21.0085 5.25294C21.3236 4.93782 21.4972 4.51737 21.4972 4.06919C21.4972 3.62093 21.3236 3.20052 21.0085 2.88539L19.1147 0.99158C18.7996 0.676457 18.3791 0.502879 17.9309 0.502879C17.4827 0.502879 17.0623 0.676416 16.7471 0.991621L10.5276 7.21103L9.11172 5.79513C9.42815 4.35121 8.98744 2.82814 7.93773 1.77847C6.76058 0.601317 5.0481 0.199651 3.46858 0.730229C3.35866 0.767184 3.27565 0.858321 3.24911 0.971196C3.22257 1.08411 3.25633 1.20269 3.33836 1.28468L5.64389 3.59021L5.21573 5.21533L3.59048 5.64292L1.28499 3.33747C1.20296 3.25544 1.08439 3.22168 0.971553 3.24822C0.858678 3.27471 0.7675 3.35769 0.730504 3.46761C0.199516 5.04741 0.6011 6.76018 1.77849 7.93758C2.82821 8.98725 4.35128 9.42796 5.79516 9.11157L6.50042 9.81679C6.5658 9.88217 6.65156 9.91494 6.73728 9.91494C6.82301 9.91494 6.90877 9.88225 6.97415 9.81679C7.10499 9.68595 7.10499 9.47382 6.97415 9.34302L6.13591 8.50478C6.05142 8.42021 5.92829 8.38711 5.81259 8.41799C4.54389 8.75674 3.17963 8.39117 2.25227 7.4638C1.39032 6.60186 1.01983 5.40072 1.22659 4.22661L3.25272 6.25274C3.33696 6.33698 3.45964 6.37012 3.57481 6.33985L5.57506 5.81362C5.69184 5.7829 5.78306 5.69172 5.81378 5.57495L6.31769 3.66227L7.59209 2.38788C8.42401 3.30954 8.74065 4.60415 8.41802 5.81252C8.38714 5.92806 8.42024 6.05127 8.50481 6.13584L10.0537 7.68476L2.49487 15.2438C2.48601 15.2526 2.47789 15.2619 2.47022 15.2715C2.4683 15.2739 2.46661 15.2765 2.46473 15.2789C2.45911 15.2864 2.45369 15.2939 2.44873 15.3017C2.44684 15.3046 2.44516 15.3077 2.4434 15.3107C2.43885 15.3184 2.43458 15.3262 2.43077 15.3341C2.42921 15.3374 2.42769 15.3406 2.42621 15.344C2.4226 15.3521 2.41928 15.3604 2.41633 15.3687C2.41563 15.3708 2.41461 15.3727 2.41391 15.3748L0.520094 21.0561C0.479981 21.1765 0.511276 21.3092 0.601018 21.399C0.664879 21.4628 0.750479 21.4971 0.837924 21.4971C0.873362 21.4971 0.909127 21.4915 0.943826 21.4799L6.62531 19.5861C6.6274 19.5854 6.62937 19.5844 6.63146 19.5837C6.63979 19.5807 6.64795 19.5775 6.65603 19.5738C6.6594 19.5724 6.66263 19.5708 6.66596 19.5692C6.67387 19.5654 6.68163 19.5612 6.68925 19.5566C6.69229 19.5548 6.69532 19.5532 6.69832 19.5513C6.70607 19.5464 6.71366 19.5409 6.72104 19.5353C6.72354 19.5334 6.72613 19.5317 6.72855 19.5298C6.7381 19.5222 6.74741 19.5139 6.75623 19.5051L14.3152 11.9462L15.8642 13.4951C15.9489 13.5797 16.0721 13.6127 16.1875 13.5819C17.4563 13.2432 18.8205 13.6087 19.7478 14.536C20.6095 15.3977 20.98 16.5985 20.7736 17.7723L18.7475 15.7462C18.6632 15.6619 18.5404 15.6288 18.4252 15.6591L16.425 16.1861C16.3083 16.2168 16.2171 16.308 16.1864 16.4248L15.6832 18.3375L14.4083 19.6123C13.5761 18.6906 13.2593 17.3959 13.582 16.1874C13.6128 16.0718 13.5798 15.9486 13.4953 15.864L12.6569 15.0258C12.5261 14.8949 12.314 14.8949 12.1831 15.0258C12.0523 15.1566 12.0523 15.3687 12.1831 15.4995L12.8884 16.2048C12.572 17.6487 13.0127 19.1718 14.0623 20.2215C14.0898 20.2489 14.1175 20.2758 14.1455 20.3024C14.1524 20.3108 14.1597 20.3189 14.1676 20.3268C14.1809 20.3401 14.1952 20.3517 14.21 20.3623C15.0241 21.1051 16.064 21.4999 17.1318 21.4999C17.5988 21.4999 18.0713 21.4243 18.5324 21.2694C18.6423 21.2324 18.7253 21.1413 18.7518 21.0283C18.7783 20.9155 18.7445 20.7968 18.6625 20.7149L16.357 18.4094L16.7846 16.7842L18.4098 16.356L20.7153 18.6615C20.7974 18.7436 20.9161 18.7774 21.0289 18.7508C21.1417 18.7242 21.2329 18.6413 21.2699 18.5313C21.8004 16.9519 21.3987 15.2395 20.2216 14.0624ZM6.01684 3.0157L4.22762 1.22639C5.24419 1.04757 6.2807 1.30182 7.09986 1.93268L6.01684 3.0157ZM17.2209 1.46531C17.4095 1.27672 17.6616 1.17287 17.9309 1.17287C18.2002 1.17287 18.4524 1.27672 18.641 1.46531L20.5347 3.35913C20.9263 3.75066 20.9263 4.38767 20.5347 4.77917L18.8778 6.43608L15.564 3.12222L17.2209 1.46531ZM1.36764 20.6324L1.93128 18.9416L3.05851 20.0688L1.36764 20.6324ZM3.76919 19.8319L2.16814 18.2309L2.87816 16.1008L5.89921 19.1219L3.76919 19.8319ZM6.51937 18.7945L3.20547 15.4806L13.8276 4.85857L15.2477 6.27858L5.33557 16.1907C5.20473 16.3215 5.20473 16.5337 5.33557 16.6645C5.40095 16.7298 5.48672 16.7626 5.57244 16.7626C5.65816 16.7626 5.74393 16.7299 5.80931 16.6645L15.7213 6.75247L16.4314 7.46245C16.4968 7.52783 16.5826 7.5606 16.6683 7.5606C16.754 7.5606 16.8398 7.52791 16.9052 7.46245C17.036 7.33161 17.036 7.11948 16.9052 6.98868L15.9583 6.04183C15.9582 6.04171 14.3013 4.3848 14.3013 4.3848L15.0901 3.59603L18.4039 6.90989L6.51937 18.7945ZM17.7734 20.7735C16.7569 20.9524 15.7202 20.6984 14.9007 20.0676L15.9841 18.9842L17.7734 20.7735Z" fill="#66428A"/>
</g>
</g>
<g id="Group_3">
<g id="Group_4">
<path id="Vector_2" d="M8.03116 6.60985C7.90032 6.47901 7.68819 6.47901 7.55739 6.60985L6.60985 7.55739C6.47901 7.68823 6.47901 7.90036 6.60985 8.03116C6.67523 8.09654 6.76099 8.12931 6.84671 8.12931C6.93244 8.12931 7.0182 8.09662 7.08358 8.03116L8.03112 7.08362C8.162 6.95282 8.162 6.74069 8.03116 6.60985Z" fill="#66428A"/>
</g>
</g>
<g id="Group_5">
<g id="Group_6">
<path id="Vector_3" d="M15.3906 13.9692C15.2597 13.8384 15.0476 13.8384 14.9168 13.9692L13.9692 14.9168C13.8384 15.0476 13.8384 15.2597 13.9692 15.3905C14.0347 15.4559 14.1204 15.4887 14.2061 15.4887C14.2918 15.4887 14.3776 15.456 14.443 15.3905L15.3905 14.443C15.5214 14.3122 15.5214 14.1 15.3906 13.9692Z" fill="#66428A"/>
</g>
</g>
</g>
<defs>
<clipPath id="clip0_475_6514">
<rect width="21" height="21" fill="white" transform="translate(0.5 0.5)"/>
</clipPath>
</defs>
</svg>
