<svg width="30" height="30" viewBox="0 0 30 30" fill="none" xmlns="http://www.w3.org/2000/svg">
<g id="english-svgrepo-com">
<path id="Vector" d="M8.33594 19.2405V10.7598H13.1821" stroke="#F5772D" stroke-linecap="round" stroke-linejoin="round"/>
<path id="Vector_2" d="M8.33594 15H12.8792" stroke="#F5772D" stroke-linecap="round" stroke-linejoin="round"/>
<path id="Vector_3" d="M8.33594 19.2402H12.8792" stroke="#F5772D" stroke-linecap="round" stroke-linejoin="round"/>
<path id="Vector_4" d="M16.2109 19.2399V11.9707" stroke="#F5772D" stroke-linecap="round" stroke-linejoin="round"/>
<path id="Vector_5" d="M16.2109 19.2396V15.3021C16.2109 13.7966 17.4314 12.5762 18.9369 12.5762C20.4424 12.5762 21.6629 13.7966 21.6629 15.3021V19.2396" stroke="#F5772D" stroke-linecap="round" stroke-linejoin="round"/>
<path id="Vector_6" d="M24.0861 4.0957H5.91301C4.90934 4.0957 4.0957 4.90934 4.0957 5.91301V24.0861C4.0957 25.0898 4.90934 25.9034 5.91301 25.9034H24.0861C25.0898 25.9034 25.9034 25.0898 25.9034 24.0861V5.91301C25.9034 4.90934 25.0898 4.0957 24.0861 4.0957Z" stroke="#F5772D" stroke-linecap="round" stroke-linejoin="round"/>
</g>
</svg>
