<svg width="43" height="42" viewBox="0 0 43 42" fill="none" xmlns="http://www.w3.org/2000/svg">
<g id="vuesax/outline/gallery-add">
<g id="gallery-add">
<path id="Vector" d="M16.315 19.0148C13.7033 19.0148 11.5898 16.9013 11.5898 14.2896C11.5898 11.6779 13.7033 9.56445 16.315 9.56445C18.9267 9.56445 21.0401 11.6779 21.0401 14.2896C21.0401 16.9013 18.9267 19.0148 16.315 19.0148ZM16.315 12.1418C15.1294 12.1418 14.1672 13.104 14.1672 14.2896C14.1672 15.4752 15.1294 16.4374 16.315 16.4374C17.5006 16.4374 18.4628 15.4752 18.4628 14.2896C18.4628 13.104 17.5006 12.1418 16.315 12.1418Z" fill="#A0A3BD"/>
<path id="Vector_2" d="M26.6257 39.6315H16.3163C6.98631 39.6315 3 35.6452 3 26.3152V16.0058C3 6.67576 6.98631 2.68945 16.3163 2.68945H23.1893C23.8937 2.68945 24.4779 3.27365 24.4779 3.97813C24.4779 4.68261 23.8937 5.26681 23.1893 5.26681H16.3163C8.39526 5.26681 5.57735 8.08471 5.57735 16.0058V26.3152C5.57735 34.2363 8.39526 37.0542 16.3163 37.0542H26.6257C34.5468 37.0542 37.3647 34.2363 37.3647 26.3152V17.724C37.3647 17.0195 37.9489 16.4353 38.6534 16.4353C39.3579 16.4353 39.9421 17.0195 39.9421 17.724V26.3152C39.9421 35.6452 35.9558 39.6315 26.6257 39.6315Z" fill="#A0A3BD"/>
<path id="Vector_3" d="M37.364 10.4231H27.9137C27.2092 10.4231 26.625 9.83886 26.625 9.13438C26.625 8.4299 27.2092 7.8457 27.9137 7.8457H37.364C38.0685 7.8457 38.6527 8.4299 38.6527 9.13438C38.6527 9.83886 38.0685 10.4231 37.364 10.4231Z" fill="#A0A3BD"/>
<path id="Vector_4" d="M32.6402 15.1487C31.9358 15.1487 31.3516 14.5645 31.3516 13.8601V4.40977C31.3516 3.70529 31.9358 3.12109 32.6402 3.12109C33.3447 3.12109 33.9289 3.70529 33.9289 4.40977V13.8601C33.9289 14.5645 33.3447 15.1487 32.6402 15.1487Z" fill="#A0A3BD"/>
<path id="Vector_5" d="M5.43663 34.3925C5.02425 34.3925 4.61187 34.1863 4.37132 33.8255C3.97612 33.2413 4.13077 32.4337 4.71497 32.0385L13.1859 26.3512C15.0416 25.1141 17.6017 25.2515 19.2856 26.6777L19.8526 27.1759C20.7117 27.9148 22.1722 27.9148 23.0142 27.1759L30.162 21.0418C32.0006 19.4782 34.8528 19.4782 36.6913 21.0418L39.4921 23.4474C40.0247 23.9113 40.0935 24.7189 39.6295 25.2687C39.1656 25.8014 38.358 25.8701 37.8082 25.4062L35.0075 23.0006C34.1484 22.2618 32.6879 22.2618 31.8459 23.0006L24.6981 29.1347C22.8767 30.6983 20.0073 30.6983 18.1688 29.1347L17.6017 28.6364C16.8113 27.9663 15.5055 27.8976 14.6292 28.499L6.17547 34.1863C5.93491 34.3238 5.67718 34.3925 5.43663 34.3925Z" fill="#A0A3BD"/>
</g>
</g>
</svg>
