<svg width="30" height="30" viewBox="0 0 30 30" fill="none" xmlns="http://www.w3.org/2000/svg">
<g id="book-heart-love-svgrepo-com">
<g id="diary_book-book-heart-love-valentine">
<path id="Vector" d="M26.3574 10.0011H25.9031V7.44683C25.9031 6.59343 25.1294 5.95783 24.3068 6.10384L14.9992 7.72261L5.69531 6.08209C4.86549 5.9333 4.0954 6.57412 4.0954 7.42423V10.0011H3.64108C3.13927 10.0011 2.73242 10.4079 2.73242 10.9098V21.3593C2.73242 21.8611 3.13927 22.2679 3.64108 22.2679H11.0662C11.8387 22.2679 12.1952 22.6442 12.6496 23.0986C12.9904 23.4394 13.4527 23.6309 13.9346 23.6309C14.7051 23.6309 15.2933 23.6309 16.0637 23.6309C16.5457 23.6309 17.0079 23.4394 17.3487 23.0986C17.8031 22.6443 18.159 22.2679 18.9322 22.2679H26.3574C26.8592 22.2679 27.2661 21.8611 27.2661 21.3593V10.9098C27.2661 10.4079 26.8592 10.0011 26.3574 10.0011ZM24.4625 6.9992C24.7321 6.95104 24.9944 7.15748 24.9944 7.44689V18.7545C24.9944 18.9754 24.8365 19.1635 24.6191 19.2021L15.4536 20.818V8.56584L24.4625 6.9992ZM5.00406 7.42423C5.00406 7.143 5.25655 6.92827 5.53738 6.97654L14.5449 8.56493V20.818L5.37939 19.2021C5.16199 19.1635 5.00406 18.9754 5.00406 18.7545V7.42423ZM16.8237 15.6647C16.7798 15.4175 16.9448 15.182 17.1919 15.1385L23.0981 14.0972C23.3444 14.0506 23.5809 14.2183 23.6244 14.4654C23.6683 14.7125 23.5032 14.9481 23.2561 14.9916L17.3499 16.0329C17.3232 16.0378 17.2966 16.04 17.2705 16.04C17.0539 16.04 16.8623 15.8852 16.8237 15.6647ZM16.8237 13.3931C16.7798 13.1459 16.9448 12.9103 17.1919 12.8668L23.0981 11.8255C23.3444 11.7798 23.5809 11.9467 23.6244 12.1938C23.6683 12.4409 23.5032 12.6765 23.2561 12.72L17.3499 13.7613C17.3232 13.7662 17.2966 13.7684 17.2705 13.7684C17.0539 13.7684 16.8623 13.6135 16.8237 13.3931ZM16.8237 11.1214C16.7798 10.8743 16.9448 10.6387 17.1919 10.5952L23.0981 9.55388C23.3444 9.50732 23.5809 9.67502 23.6244 9.92212C23.6683 10.1693 23.5032 10.4048 23.2561 10.4483L17.3499 11.4897C17.3232 11.4945 17.2966 11.4968 17.2705 11.4968C17.0539 11.4968 16.8623 11.3419 16.8237 11.1214ZM16.8237 17.9363C16.7798 17.6892 16.9448 17.4536 17.1919 17.4101L23.0981 16.3688C23.3444 16.3231 23.5809 16.4899 23.6244 16.737C23.6683 16.9842 23.5032 17.2197 23.2561 17.2632L17.3499 18.3046C17.3232 18.3094 17.2966 18.3117 17.2705 18.3117C17.0539 18.3117 16.8623 18.1568 16.8237 17.9363ZM7.17568 12.8544C6.50271 12.0555 6.38691 10.9418 6.97044 10.285C7.67544 9.49153 8.98816 9.66156 9.77449 10.5952C10.5609 9.93887 11.8735 10.2318 12.5785 11.2739C13.1621 12.1364 13.0462 13.2093 12.3733 13.7709L10.5276 15.3113C10.112 15.6582 9.43698 15.5392 9.02139 15.0457L7.17568 12.8544Z" fill="#FF5443"/>
</g>
</g>
</svg>
