<svg width="30" height="30" viewBox="0 0 30 30" fill="none" xmlns="http://www.w3.org/2000/svg">
<g id="geography-svgrepo-com">
<path id="Vector" d="M22.0908 7.88401L20.8323 9.49687C20.7825 9.55874 20.7196 9.60877 20.6481 9.64334C20.5766 9.67791 20.4983 9.69616 20.4189 9.69678H18.6925C18.5999 9.69512 18.5093 9.67012 18.4289 9.62409L17.7793 9.247C17.6932 9.19596 17.5942 9.17095 17.4942 9.17498C17.3942 9.17901 17.2976 9.21191 17.2159 9.26971L16.2391 9.96938C16.1519 10.0306 16.048 10.0634 15.9415 10.0634C15.835 10.0634 15.7311 10.0306 15.6439 9.96938L13.6994 8.6382C13.6414 8.59757 13.5921 8.54567 13.5546 8.48558C13.5171 8.42549 13.4921 8.35846 13.481 8.28848C13.47 8.2185 13.4732 8.14702 13.4904 8.07831C13.5076 8.0096 13.5385 7.94506 13.5813 7.88856L16.2255 4.47656" stroke="#FFC300" stroke-miterlimit="10" stroke-linecap="round"/>
<path id="Vector_2" d="M15.8681 19.2069C20.0183 19.2069 23.3827 15.8425 23.3827 11.6923C23.3827 7.54212 20.0183 4.17773 15.8681 4.17773C11.7179 4.17773 8.35352 7.54212 8.35352 11.6923C8.35352 15.8425 11.7179 19.2069 15.8681 19.2069Z" stroke="#FFC300" stroke-miterlimit="10" stroke-linecap="round"/>
<path id="Vector_3" d="M22.7996 18.888C20.9464 20.7109 18.4489 21.7289 15.8494 21.7209C13.25 21.7129 10.7587 20.6796 8.91677 18.8454C7.0748 17.0113 6.03095 14.5244 6.01198 11.925C5.99301 9.32563 7.00045 6.82377 8.81544 4.96289" stroke="#FFC300" stroke-miterlimit="10" stroke-linecap="round"/>
<path id="Vector_4" d="M9.59375 15.8307L12.0607 13.7227C12.1481 13.6463 12.2583 13.6008 12.3741 13.5934C12.4899 13.5861 12.605 13.6171 12.7013 13.6818L13.8008 14.436C13.8743 14.4873 13.9599 14.5185 14.0492 14.5265C14.1385 14.5344 14.2283 14.5189 14.3097 14.4814L15.9907 13.3456C16.0752 13.3059 16.1689 13.29 16.2618 13.2996C16.3546 13.3092 16.4431 13.344 16.5177 13.4001L18.335 14.4496C18.3905 14.4915 18.4371 14.5441 18.472 14.6042C18.5069 14.6643 18.5295 14.7308 18.5384 14.7998C18.5473 14.8688 18.5423 14.9388 18.5238 15.0059C18.5052 15.0729 18.4735 15.1355 18.4304 15.1901L17.3673 17.0347C17.2966 17.1248 17.1983 17.1891 17.0875 17.2178C16.9767 17.2465 16.8595 17.2381 16.7539 17.1937L15.1047 16.7394C15.0296 16.7078 14.948 16.6941 14.8666 16.6997C14.7853 16.7052 14.7063 16.7297 14.6361 16.7712C14.5659 16.8127 14.5064 16.8701 14.4623 16.9387C14.4182 17.0073 14.3909 17.0853 14.3824 17.1665L14.1915 19.0156" stroke="#FFC300" stroke-miterlimit="10" stroke-linecap="round"/>
<path id="Vector_5" d="M21.0879 17.0977L23.991 20.128" stroke="#FFC300" stroke-miterlimit="10" stroke-linecap="round"/>
<path id="Vector_6" d="M10.3562 6.58165L7.42578 3.50586" stroke="#FFC300" stroke-miterlimit="10" stroke-linecap="round"/>
<path id="Vector_7" d="M15.877 21.7227V24.1488" stroke="#FFC300" stroke-miterlimit="10" stroke-linecap="round"/>
<path id="Vector_8" d="M19.1436 26.4947H12.4241C12.3391 26.495 12.2552 26.4744 12.18 26.4346C12.1048 26.3948 12.0406 26.3371 11.993 26.2666C11.9454 26.1961 11.9159 26.1149 11.9071 26.0303C11.8983 25.9457 11.9105 25.8602 11.9426 25.7814L13.0829 24.4775C13.123 24.3813 13.1904 24.2991 13.2768 24.2409C13.3633 24.1828 13.4649 24.1513 13.569 24.1504H18.0033C18.1069 24.151 18.2081 24.1824 18.2939 24.2407C18.3796 24.2989 18.4461 24.3814 18.4849 24.4775L19.6298 25.7814C19.6608 25.8606 19.6721 25.9462 19.6626 26.0307C19.6531 26.1153 19.623 26.1962 19.5751 26.2665C19.5272 26.3368 19.4629 26.3943 19.3877 26.4341C19.3125 26.4739 19.2287 26.4947 19.1436 26.4947Z" stroke="#FFC300" stroke-miterlimit="10" stroke-linecap="round"/>
</g>
</svg>
