<svg width="19" height="19" viewBox="0 0 19 19" fill="none" xmlns="http://www.w3.org/2000/svg">
<g id="vuesax/outline/document-text">
<g id="document-text">
<path id="Vector" d="M11.8737 18.0111H7.1237C2.82495 18.0111 0.988281 16.1744 0.988281 11.8757V7.12565C0.988281 2.8269 2.82495 0.990234 7.1237 0.990234H11.082C11.4066 0.990234 11.6758 1.2594 11.6758 1.58398C11.6758 1.90857 11.4066 2.17773 11.082 2.17773H7.1237C3.47411 2.17773 2.17578 3.47607 2.17578 7.12565V11.8757C2.17578 15.5252 3.47411 16.8236 7.1237 16.8236H11.8737C15.5233 16.8236 16.8216 15.5252 16.8216 11.8757V7.91732C16.8216 7.59273 17.0908 7.32357 17.4154 7.32357C17.7399 7.32357 18.0091 7.59273 18.0091 7.91732V11.8757C18.0091 16.1744 16.1724 18.0111 11.8737 18.0111Z" fill="#A0A3BD"/>
<path id="Vector_2" d="M17.4154 8.5099H14.2487C11.5412 8.5099 10.4883 7.45698 10.4883 4.74948V1.58282C10.4883 1.34532 10.6308 1.12365 10.8524 1.03657C11.0741 0.941566 11.3274 0.996982 11.5016 1.16323L17.8349 7.49657C18.0012 7.66282 18.0566 7.92407 17.9616 8.14573C17.8666 8.3674 17.6529 8.5099 17.4154 8.5099ZM11.6758 3.01573V4.74948C11.6758 6.79198 12.2062 7.3224 14.2487 7.3224H15.9824L11.6758 3.01573Z" fill="#A0A3BD"/>
<path id="Vector_3" d="M10.293 10.8848H5.54297C5.21839 10.8848 4.94922 10.6156 4.94922 10.291C4.94922 9.96643 5.21839 9.69727 5.54297 9.69727H10.293C10.6176 9.69727 10.8867 9.96643 10.8867 10.291C10.8867 10.6156 10.6176 10.8848 10.293 10.8848Z" fill="#A0A3BD"/>
<path id="Vector_4" d="M8.70964 14.0527H5.54297C5.21839 14.0527 4.94922 13.7836 4.94922 13.459C4.94922 13.1344 5.21839 12.8652 5.54297 12.8652H8.70964C9.03422 12.8652 9.30339 13.1344 9.30339 13.459C9.30339 13.7836 9.03422 14.0527 8.70964 14.0527Z" fill="#A0A3BD"/>
</g>
</g>
</svg>
