<svg width="20" height="20" viewBox="0 0 20 20" fill="none" xmlns="http://www.w3.org/2000/svg">
<g id="ic:round-remove-red-eye">
<path id="Vector" d="M10.0007 3.33398C5.83398 3.33398 2.27565 5.92565 0.833984 9.58398C2.27565 13.2423 5.83398 15.834 10.0007 15.834C14.1673 15.834 17.7256 13.2423 19.1673 9.58398C17.7256 5.92565 14.1673 3.33398 10.0007 3.33398ZM10.0007 13.7507C7.70065 13.7507 5.83398 11.884 5.83398 9.58398C5.83398 7.28398 7.70065 5.41732 10.0007 5.41732C12.3006 5.41732 14.1673 7.28398 14.1673 9.58398C14.1673 11.884 12.3006 13.7507 10.0007 13.7507ZM10.0007 7.08398C8.61732 7.08398 7.50065 8.20065 7.50065 9.58398C7.50065 10.9673 8.61732 12.084 10.0007 12.084C11.384 12.084 12.5007 10.9673 12.5007 9.58398C12.5007 8.20065 11.384 7.08398 10.0007 7.08398Z" fill="white"/>
</g>
</svg>
